<svg xmlns="http://www.w3.org/2000/svg" version="1.1" xmlns:xlink="http://www.w3.org/1999/xlink" xmlns:svgjs="http://svgjs.com/svgjs" width="1440" height="560" preserveAspectRatio="none" viewBox="0 0 1440 560">
    <g mask="url(&quot;#SvgjsMask1077&quot;)" fill="none">
        <path d="M0 -57L49.36 -28.5L49.36 28.5L0 57L-49.36 28.5L-49.36 -28.5zM49.36 28.5L98.73 57L98.73 114L49.36 142.5L0 114L0 57zM0 114L49.36 142.5L49.36 199.5L0 228L-49.36 199.5L-49.36 142.5zM49.36 199.5L98.73 228L98.73 285L49.36 313.5L0 285L0 228zM0 285L49.36 313.5L49.36 370.5L0 399L-49.36 370.5L-49.36 313.5zM49.36 370.5L98.73 399L98.73 456L49.36 484.5L0 456L0 399zM0 456L49.36 484.5L49.36 541.5L0 570L-49.36 541.5L-49.36 484.5zM49.36 541.5L98.73 570L98.73 627L49.36 655.5L0 627L0 570zM98.73 -57L148.09 -28.5L148.09 28.5L98.73 57L49.36 28.5L49.36 -28.5zM148.09 28.5L197.46 57L197.46 114L148.09 142.5L98.73 114L98.73 57zM98.73 114L148.09 142.5L148.09 199.5L98.73 228L49.36 199.5L49.36 142.5zM148.09 199.5L197.46 228L197.46 285L148.09 313.5L98.73 285L98.73 228zM98.73 285L148.09 313.5L148.09 370.5L98.73 399L49.36 370.5L49.36 313.5zM148.09 370.5L197.46 399L197.46 456L148.09 484.5L98.73 456L98.73 399zM98.73 456L148.09 484.5L148.09 541.5L98.73 570L49.36 541.5L49.36 484.5zM148.09 541.5L197.46 570L197.46 627L148.09 655.5L98.73 627L98.73 570zM197.46 -57L246.82 -28.5L246.82 28.5L197.46 57L148.09 28.5L148.09 -28.5zM246.82 28.5L296.19 57L296.19 114L246.82 142.5L197.46 114L197.46 57zM197.46 114L246.82 142.5L246.82 199.5L197.46 228L148.09 199.5L148.09 142.5zM246.82 199.5L296.19 228L296.19 285L246.82 313.5L197.46 285L197.46 228zM197.46 285L246.82 313.5L246.82 370.5L197.46 399L148.09 370.5L148.09 313.5zM246.82 370.5L296.19 399L296.19 456L246.82 484.5L197.46 456L197.46 399zM197.46 456L246.82 484.5L246.82 541.5L197.46 570L148.09 541.5L148.09 484.5zM246.82 541.5L296.19 570L296.19 627L246.82 655.5L197.46 627L197.46 570zM296.19 -57L345.55 -28.5L345.55 28.5L296.19 57L246.82 28.5L246.82 -28.5zM345.55 28.5L394.92 57L394.92 114L345.55 142.5L296.19 114L296.19 57zM296.19 114L345.55 142.5L345.55 199.5L296.19 228L246.82 199.5L246.82 142.5zM345.55 199.5L394.92 228L394.92 285L345.55 313.5L296.19 285L296.19 228zM296.19 285L345.55 313.5L345.55 370.5L296.19 399L246.82 370.5L246.82 313.5zM345.55 370.5L394.92 399L394.92 456L345.55 484.5L296.19 456L296.19 399zM296.19 456L345.55 484.5L345.55 541.5L296.19 570L246.82 541.5L246.82 484.5zM345.55 541.5L394.92 570L394.92 627L345.55 655.5L296.19 627L296.19 570zM394.92 -57L444.28 -28.5L444.28 28.5L394.92 57L345.55 28.5L345.55 -28.5zM444.28 28.5L493.65 57L493.65 114L444.28 142.5L394.92 114L394.92 57zM394.92 114L444.28 142.5L444.28 199.5L394.92 228L345.55 199.5L345.55 142.5zM444.28 199.5L493.65 228L493.65 285L444.28 313.5L394.92 285L394.92 228zM394.92 285L444.28 313.5L444.28 370.5L394.92 399L345.55 370.5L345.55 313.5zM444.28 370.5L493.65 399L493.65 456L444.28 484.5L394.92 456L394.92 399zM394.92 456L444.28 484.5L444.28 541.5L394.92 570L345.55 541.5L345.55 484.5zM444.28 541.5L493.65 570L493.65 627L444.28 655.5L394.92 627L394.92 570zM493.65 -57L543.01 -28.5L543.01 28.5L493.65 57L444.28 28.5L444.28 -28.5zM543.01 28.5L592.38 57L592.38 114L543.01 142.5L493.65 114L493.65 57zM493.65 114L543.01 142.5L543.01 199.5L493.65 228L444.28 199.5L444.28 142.5zM543.01 199.5L592.38 228L592.38 285L543.01 313.5L493.65 285L493.65 228zM493.65 285L543.01 313.5L543.01 370.5L493.65 399L444.28 370.5L444.28 313.5zM543.01 370.5L592.38 399L592.38 456L543.01 484.5L493.65 456L493.65 399zM493.65 456L543.01 484.5L543.01 541.5L493.65 570L444.28 541.5L444.28 484.5zM543.01 541.5L592.38 570L592.38 627L543.01 655.5L493.65 627L493.65 570zM592.38 -57L641.74 -28.5L641.74 28.5L592.38 57L543.01 28.5L543.01 -28.5zM641.74 28.5L691.11 57L691.11 114L641.74 142.5L592.38 114L592.38 57zM592.38 114L641.74 142.5L641.74 199.5L592.38 228L543.01 199.5L543.01 142.5zM641.74 199.5L691.11 228L691.11 285L641.74 313.5L592.38 285L592.38 228zM592.38 285L641.74 313.5L641.74 370.5L592.38 399L543.01 370.5L543.01 313.5zM641.74 370.5L691.11 399L691.11 456L641.74 484.5L592.38 456L592.38 399zM592.38 456L641.74 484.5L641.74 541.5L592.38 570L543.01 541.5L543.01 484.5zM641.74 541.5L691.11 570L691.11 627L641.74 655.5L592.38 627L592.38 570zM691.11 -57L740.47 -28.5L740.47 28.5L691.11 57L641.74 28.5L641.74 -28.5zM740.47 28.5L789.84 57L789.84 114L740.47 142.5L691.11 114L691.11 57zM691.11 114L740.47 142.5L740.47 199.5L691.11 228L641.74 199.5L641.74 142.5zM740.47 199.5L789.84 228L789.84 285L740.47 313.5L691.11 285L691.11 228zM691.11 285L740.47 313.5L740.47 370.5L691.11 399L641.74 370.5L641.74 313.5zM740.47 370.5L789.84 399L789.84 456L740.47 484.5L691.11 456L691.11 399zM691.11 456L740.47 484.5L740.47 541.5L691.11 570L641.74 541.5L641.74 484.5zM740.47 541.5L789.84 570L789.84 627L740.47 655.5L691.11 627L691.11 570zM789.84 -57L839.2 -28.5L839.2 28.5L789.84 57L740.47 28.5L740.47 -28.5zM839.2 28.5L888.57 57L888.57 114L839.2 142.5L789.84 114L789.84 57zM789.84 114L839.2 142.5L839.2 199.5L789.84 228L740.47 199.5L740.47 142.5zM839.2 199.5L888.57 228L888.57 285L839.2 313.5L789.84 285L789.84 228zM789.84 285L839.2 313.5L839.2 370.5L789.84 399L740.47 370.5L740.47 313.5zM839.2 370.5L888.57 399L888.57 456L839.2 484.5L789.84 456L789.84 399zM789.84 456L839.2 484.5L839.2 541.5L789.84 570L740.47 541.5L740.47 484.5zM839.2 541.5L888.57 570L888.57 627L839.2 655.5L789.84 627L789.84 570zM888.57 -57L937.93 -28.5L937.93 28.5L888.57 57L839.2 28.5L839.2 -28.5zM937.93 28.5L987.3 57L987.3 114L937.93 142.5L888.57 114L888.57 57zM888.57 114L937.93 142.5L937.93 199.5L888.57 228L839.2 199.5L839.2 142.5zM937.93 199.5L987.3 228L987.3 285L937.93 313.5L888.57 285L888.57 228zM888.57 285L937.93 313.5L937.93 370.5L888.57 399L839.2 370.5L839.2 313.5zM937.93 370.5L987.3 399L987.3 456L937.93 484.5L888.57 456L888.57 399zM888.57 456L937.93 484.5L937.93 541.5L888.57 570L839.2 541.5L839.2 484.5zM937.93 541.5L987.3 570L987.3 627L937.93 655.5L888.57 627L888.57 570zM987.3 -57L1036.66 -28.5L1036.66 28.5L987.3 57L937.93 28.5L937.93 -28.5zM1036.66 28.5L1086.03 57L1086.03 114L1036.66 142.5L987.3 114L987.3 57zM987.3 114L1036.66 142.5L1036.66 199.5L987.3 228L937.93 199.5L937.93 142.5zM1036.66 199.5L1086.03 228L1086.03 285L1036.66 313.5L987.3 285L987.3 228zM987.3 285L1036.66 313.5L1036.66 370.5L987.3 399L937.93 370.5L937.93 313.5zM1036.66 370.5L1086.03 399L1086.03 456L1036.66 484.5L987.3 456L987.3 399zM987.3 456L1036.66 484.5L1036.66 541.5L987.3 570L937.93 541.5L937.93 484.5zM1036.66 541.5L1086.03 570L1086.03 627L1036.66 655.5L987.3 627L987.3 570zM1086.03 -57L1135.39 -28.5L1135.39 28.5L1086.03 57L1036.66 28.5L1036.66 -28.5zM1135.39 28.5L1184.76 57L1184.76 114L1135.39 142.5L1086.03 114L1086.03 57zM1086.03 114L1135.39 142.5L1135.39 199.5L1086.03 228L1036.66 199.5L1036.66 142.5zM1135.39 199.5L1184.76 228L1184.76 285L1135.39 313.5L1086.03 285L1086.03 228zM1086.03 285L1135.39 313.5L1135.39 370.5L1086.03 399L1036.66 370.5L1036.66 313.5zM1135.39 370.5L1184.76 399L1184.76 456L1135.39 484.5L1086.03 456L1086.03 399zM1086.03 456L1135.39 484.5L1135.39 541.5L1086.03 570L1036.66 541.5L1036.66 484.5zM1135.39 541.5L1184.76 570L1184.76 627L1135.39 655.5L1086.03 627L1086.03 570zM1184.76 -57L1234.12 -28.5L1234.12 28.5L1184.76 57L1135.39 28.5L1135.39 -28.5zM1234.12 28.5L1283.49 57L1283.49 114L1234.12 142.5L1184.76 114L1184.76 57zM1184.76 114L1234.12 142.5L1234.12 199.5L1184.76 228L1135.39 199.5L1135.39 142.5zM1234.12 199.5L1283.49 228L1283.49 285L1234.12 313.5L1184.76 285L1184.76 228zM1184.76 285L1234.12 313.5L1234.12 370.5L1184.76 399L1135.39 370.5L1135.39 313.5zM1234.12 370.5L1283.49 399L1283.49 456L1234.12 484.5L1184.76 456L1184.76 399zM1184.76 456L1234.12 484.5L1234.12 541.5L1184.76 570L1135.39 541.5L1135.39 484.5zM1234.12 541.5L1283.49 570L1283.49 627L1234.12 655.5L1184.76 627L1184.76 570zM1283.49 -57L1332.85 -28.5L1332.85 28.5L1283.49 57L1234.12 28.5L1234.12 -28.5zM1332.85 28.5L1382.22 57L1382.22 114L1332.85 142.5L1283.49 114L1283.49 57zM1283.49 114L1332.85 142.5L1332.85 199.5L1283.49 228L1234.12 199.5L1234.12 142.5zM1332.85 199.5L1382.22 228L1382.22 285L1332.85 313.5L1283.49 285L1283.49 228zM1283.49 285L1332.85 313.5L1332.85 370.5L1283.49 399L1234.12 370.5L1234.12 313.5zM1332.85 370.5L1382.22 399L1382.22 456L1332.85 484.5L1283.49 456L1283.49 399zM1283.49 456L1332.85 484.5L1332.85 541.5L1283.49 570L1234.12 541.5L1234.12 484.5zM1332.85 541.5L1382.22 570L1382.22 627L1332.85 655.5L1283.49 627L1283.49 570zM1382.22 -57L1431.58 -28.5L1431.58 28.5L1382.22 57L1332.85 28.5L1332.85 -28.5zM1431.58 28.5L1480.95 57L1480.95 114L1431.58 142.5L1382.22 114L1382.22 57zM1382.22 114L1431.58 142.5L1431.58 199.5L1382.22 228L1332.85 199.5L1332.85 142.5zM1431.58 199.5L1480.95 228L1480.95 285L1431.58 313.5L1382.22 285L1382.22 228zM1382.22 285L1431.58 313.5L1431.58 370.5L1382.22 399L1332.85 370.5L1332.85 313.5zM1431.58 370.5L1480.95 399L1480.95 456L1431.58 484.5L1382.22 456L1382.22 399zM1382.22 456L1431.58 484.5L1431.58 541.5L1382.22 570L1332.85 541.5L1332.85 484.5zM1431.58 541.5L1480.95 570L1480.95 627L1431.58 655.5L1382.22 627L1382.22 570z" stroke="rgba(183, 133, 22, 0.06)" stroke-width="2"></path>
        <path d="M-5.7 -57 a5.7 5.7 0 1 0 11.4 0 a5.7 5.7 0 1 0 -11.4 0zM43.66 -28.5 a5.7 5.7 0 1 0 11.4 0 a5.7 5.7 0 1 0 -11.4 0zM43.66 28.5 a5.7 5.7 0 1 0 11.4 0 a5.7 5.7 0 1 0 -11.4 0zM-5.7 57 a5.7 5.7 0 1 0 11.4 0 a5.7 5.7 0 1 0 -11.4 0zM-55.06 28.5 a5.7 5.7 0 1 0 11.4 0 a5.7 5.7 0 1 0 -11.4 0zM-55.06 -28.5 a5.7 5.7 0 1 0 11.4 0 a5.7 5.7 0 1 0 -11.4 0zM93.03 57 a5.7 5.7 0 1 0 11.4 0 a5.7 5.7 0 1 0 -11.4 0zM93.03 114 a5.7 5.7 0 1 0 11.4 0 a5.7 5.7 0 1 0 -11.4 0zM43.66 142.5 a5.7 5.7 0 1 0 11.4 0 a5.7 5.7 0 1 0 -11.4 0zM-5.7 114 a5.7 5.7 0 1 0 11.4 0 a5.7 5.7 0 1 0 -11.4 0zM43.66 199.5 a5.7 5.7 0 1 0 11.4 0 a5.7 5.7 0 1 0 -11.4 0zM-5.7 228 a5.7 5.7 0 1 0 11.4 0 a5.7 5.7 0 1 0 -11.4 0zM-55.06 199.5 a5.7 5.7 0 1 0 11.4 0 a5.7 5.7 0 1 0 -11.4 0zM-55.06 142.5 a5.7 5.7 0 1 0 11.4 0 a5.7 5.7 0 1 0 -11.4 0zM93.03 228 a5.7 5.7 0 1 0 11.4 0 a5.7 5.7 0 1 0 -11.4 0zM93.03 285 a5.7 5.7 0 1 0 11.4 0 a5.7 5.7 0 1 0 -11.4 0zM43.66 313.5 a5.7 5.7 0 1 0 11.4 0 a5.7 5.7 0 1 0 -11.4 0zM-5.7 285 a5.7 5.7 0 1 0 11.4 0 a5.7 5.7 0 1 0 -11.4 0zM43.66 370.5 a5.7 5.7 0 1 0 11.4 0 a5.7 5.7 0 1 0 -11.4 0zM-5.7 399 a5.7 5.7 0 1 0 11.4 0 a5.7 5.7 0 1 0 -11.4 0zM-55.06 370.5 a5.7 5.7 0 1 0 11.4 0 a5.7 5.7 0 1 0 -11.4 0zM-55.06 313.5 a5.7 5.7 0 1 0 11.4 0 a5.7 5.7 0 1 0 -11.4 0zM93.03 399 a5.7 5.7 0 1 0 11.4 0 a5.7 5.7 0 1 0 -11.4 0zM93.03 456 a5.7 5.7 0 1 0 11.4 0 a5.7 5.7 0 1 0 -11.4 0zM43.66 484.5 a5.7 5.7 0 1 0 11.4 0 a5.7 5.7 0 1 0 -11.4 0zM-5.7 456 a5.7 5.7 0 1 0 11.4 0 a5.7 5.7 0 1 0 -11.4 0zM43.66 541.5 a5.7 5.7 0 1 0 11.4 0 a5.7 5.7 0 1 0 -11.4 0zM-5.7 570 a5.7 5.7 0 1 0 11.4 0 a5.7 5.7 0 1 0 -11.4 0zM-55.06 541.5 a5.7 5.7 0 1 0 11.4 0 a5.7 5.7 0 1 0 -11.4 0zM-55.06 484.5 a5.7 5.7 0 1 0 11.4 0 a5.7 5.7 0 1 0 -11.4 0zM93.03 570 a5.7 5.7 0 1 0 11.4 0 a5.7 5.7 0 1 0 -11.4 0zM93.03 627 a5.7 5.7 0 1 0 11.4 0 a5.7 5.7 0 1 0 -11.4 0zM43.66 655.5 a5.7 5.7 0 1 0 11.4 0 a5.7 5.7 0 1 0 -11.4 0zM-5.7 627 a5.7 5.7 0 1 0 11.4 0 a5.7 5.7 0 1 0 -11.4 0zM93.03 -57 a5.7 5.7 0 1 0 11.4 0 a5.7 5.7 0 1 0 -11.4 0zM142.39 -28.5 a5.7 5.7 0 1 0 11.4 0 a5.7 5.7 0 1 0 -11.4 0zM142.39 28.5 a5.7 5.7 0 1 0 11.4 0 a5.7 5.7 0 1 0 -11.4 0zM191.76 57 a5.7 5.7 0 1 0 11.4 0 a5.7 5.7 0 1 0 -11.4 0zM191.76 114 a5.7 5.7 0 1 0 11.4 0 a5.7 5.7 0 1 0 -11.4 0zM142.39 142.5 a5.7 5.7 0 1 0 11.4 0 a5.7 5.7 0 1 0 -11.4 0zM142.39 199.5 a5.7 5.7 0 1 0 11.4 0 a5.7 5.7 0 1 0 -11.4 0zM191.76 228 a5.7 5.7 0 1 0 11.4 0 a5.7 5.7 0 1 0 -11.4 0zM191.76 285 a5.7 5.7 0 1 0 11.4 0 a5.7 5.7 0 1 0 -11.4 0zM142.39 313.5 a5.7 5.7 0 1 0 11.4 0 a5.7 5.7 0 1 0 -11.4 0zM142.39 370.5 a5.7 5.7 0 1 0 11.4 0 a5.7 5.7 0 1 0 -11.4 0zM191.76 399 a5.7 5.7 0 1 0 11.4 0 a5.7 5.7 0 1 0 -11.4 0zM191.76 456 a5.7 5.7 0 1 0 11.4 0 a5.7 5.7 0 1 0 -11.4 0zM142.39 484.5 a5.7 5.7 0 1 0 11.4 0 a5.7 5.7 0 1 0 -11.4 0zM142.39 541.5 a5.7 5.7 0 1 0 11.4 0 a5.7 5.7 0 1 0 -11.4 0zM191.76 570 a5.7 5.7 0 1 0 11.4 0 a5.7 5.7 0 1 0 -11.4 0zM191.76 627 a5.7 5.7 0 1 0 11.4 0 a5.7 5.7 0 1 0 -11.4 0zM142.39 655.5 a5.7 5.7 0 1 0 11.4 0 a5.7 5.7 0 1 0 -11.4 0zM191.76 -57 a5.7 5.7 0 1 0 11.4 0 a5.7 5.7 0 1 0 -11.4 0zM241.12 -28.5 a5.7 5.7 0 1 0 11.4 0 a5.7 5.7 0 1 0 -11.4 0zM241.12 28.5 a5.7 5.7 0 1 0 11.4 0 a5.7 5.7 0 1 0 -11.4 0zM290.49 57 a5.7 5.7 0 1 0 11.4 0 a5.7 5.7 0 1 0 -11.4 0zM290.49 114 a5.7 5.7 0 1 0 11.4 0 a5.7 5.7 0 1 0 -11.4 0zM241.12 142.5 a5.7 5.7 0 1 0 11.4 0 a5.7 5.7 0 1 0 -11.4 0zM241.12 199.5 a5.7 5.7 0 1 0 11.4 0 a5.7 5.7 0 1 0 -11.4 0zM290.49 228 a5.7 5.7 0 1 0 11.4 0 a5.7 5.7 0 1 0 -11.4 0zM290.49 285 a5.7 5.7 0 1 0 11.4 0 a5.7 5.7 0 1 0 -11.4 0zM241.12 313.5 a5.7 5.7 0 1 0 11.4 0 a5.7 5.7 0 1 0 -11.4 0zM241.12 370.5 a5.7 5.7 0 1 0 11.4 0 a5.7 5.7 0 1 0 -11.4 0zM290.49 399 a5.7 5.7 0 1 0 11.4 0 a5.7 5.7 0 1 0 -11.4 0zM290.49 456 a5.7 5.7 0 1 0 11.4 0 a5.7 5.7 0 1 0 -11.4 0zM241.12 484.5 a5.7 5.7 0 1 0 11.4 0 a5.7 5.7 0 1 0 -11.4 0zM241.12 541.5 a5.7 5.7 0 1 0 11.4 0 a5.7 5.7 0 1 0 -11.4 0zM290.49 570 a5.7 5.7 0 1 0 11.4 0 a5.7 5.7 0 1 0 -11.4 0zM290.49 627 a5.7 5.7 0 1 0 11.4 0 a5.7 5.7 0 1 0 -11.4 0zM241.12 655.5 a5.7 5.7 0 1 0 11.4 0 a5.7 5.7 0 1 0 -11.4 0zM290.49 -57 a5.7 5.7 0 1 0 11.4 0 a5.7 5.7 0 1 0 -11.4 0zM339.85 -28.5 a5.7 5.7 0 1 0 11.4 0 a5.7 5.7 0 1 0 -11.4 0zM339.85 28.5 a5.7 5.7 0 1 0 11.4 0 a5.7 5.7 0 1 0 -11.4 0zM389.22 57 a5.7 5.7 0 1 0 11.4 0 a5.7 5.7 0 1 0 -11.4 0zM389.22 114 a5.7 5.7 0 1 0 11.4 0 a5.7 5.7 0 1 0 -11.4 0zM339.85 142.5 a5.7 5.7 0 1 0 11.4 0 a5.7 5.7 0 1 0 -11.4 0zM339.85 199.5 a5.7 5.7 0 1 0 11.4 0 a5.7 5.7 0 1 0 -11.4 0zM389.22 228 a5.7 5.7 0 1 0 11.4 0 a5.7 5.7 0 1 0 -11.4 0zM389.22 285 a5.7 5.7 0 1 0 11.4 0 a5.7 5.7 0 1 0 -11.4 0zM339.85 313.5 a5.7 5.7 0 1 0 11.4 0 a5.7 5.7 0 1 0 -11.4 0zM339.85 370.5 a5.7 5.7 0 1 0 11.4 0 a5.7 5.7 0 1 0 -11.4 0zM389.22 399 a5.7 5.7 0 1 0 11.4 0 a5.7 5.7 0 1 0 -11.4 0zM389.22 456 a5.7 5.7 0 1 0 11.4 0 a5.7 5.7 0 1 0 -11.4 0zM339.85 484.5 a5.7 5.7 0 1 0 11.4 0 a5.7 5.7 0 1 0 -11.4 0zM339.85 541.5 a5.7 5.7 0 1 0 11.4 0 a5.7 5.7 0 1 0 -11.4 0zM389.22 570 a5.7 5.7 0 1 0 11.4 0 a5.7 5.7 0 1 0 -11.4 0zM389.22 627 a5.7 5.7 0 1 0 11.4 0 a5.7 5.7 0 1 0 -11.4 0zM339.85 655.5 a5.7 5.7 0 1 0 11.4 0 a5.7 5.7 0 1 0 -11.4 0zM389.22 -57 a5.7 5.7 0 1 0 11.4 0 a5.7 5.7 0 1 0 -11.4 0zM438.58 -28.5 a5.7 5.7 0 1 0 11.4 0 a5.7 5.7 0 1 0 -11.4 0zM438.58 28.5 a5.7 5.7 0 1 0 11.4 0 a5.7 5.7 0 1 0 -11.4 0zM487.95 57 a5.7 5.7 0 1 0 11.4 0 a5.7 5.7 0 1 0 -11.4 0zM487.95 114 a5.7 5.7 0 1 0 11.4 0 a5.7 5.7 0 1 0 -11.4 0zM438.58 142.5 a5.7 5.7 0 1 0 11.4 0 a5.7 5.7 0 1 0 -11.4 0zM438.58 199.5 a5.7 5.7 0 1 0 11.4 0 a5.7 5.7 0 1 0 -11.4 0zM487.95 228 a5.7 5.7 0 1 0 11.4 0 a5.7 5.7 0 1 0 -11.4 0zM487.95 285 a5.7 5.7 0 1 0 11.4 0 a5.7 5.7 0 1 0 -11.4 0zM438.58 313.5 a5.7 5.7 0 1 0 11.4 0 a5.7 5.7 0 1 0 -11.4 0zM438.58 370.5 a5.7 5.7 0 1 0 11.4 0 a5.7 5.7 0 1 0 -11.4 0zM487.95 399 a5.7 5.7 0 1 0 11.4 0 a5.7 5.7 0 1 0 -11.4 0zM487.95 456 a5.7 5.7 0 1 0 11.4 0 a5.7 5.7 0 1 0 -11.4 0zM438.58 484.5 a5.7 5.7 0 1 0 11.4 0 a5.7 5.7 0 1 0 -11.4 0zM438.58 541.5 a5.7 5.7 0 1 0 11.4 0 a5.7 5.7 0 1 0 -11.4 0zM487.95 570 a5.7 5.7 0 1 0 11.4 0 a5.7 5.7 0 1 0 -11.4 0zM487.95 627 a5.7 5.7 0 1 0 11.4 0 a5.7 5.7 0 1 0 -11.4 0zM438.58 655.5 a5.7 5.7 0 1 0 11.4 0 a5.7 5.7 0 1 0 -11.4 0zM487.95 -57 a5.7 5.7 0 1 0 11.4 0 a5.7 5.7 0 1 0 -11.4 0zM537.31 -28.5 a5.7 5.7 0 1 0 11.4 0 a5.7 5.7 0 1 0 -11.4 0zM537.31 28.5 a5.7 5.7 0 1 0 11.4 0 a5.7 5.7 0 1 0 -11.4 0zM586.68 57 a5.7 5.7 0 1 0 11.4 0 a5.7 5.7 0 1 0 -11.4 0zM586.68 114 a5.7 5.7 0 1 0 11.4 0 a5.7 5.7 0 1 0 -11.4 0zM537.31 142.5 a5.7 5.7 0 1 0 11.4 0 a5.7 5.7 0 1 0 -11.4 0zM537.31 199.5 a5.7 5.7 0 1 0 11.4 0 a5.7 5.7 0 1 0 -11.4 0zM586.68 228 a5.7 5.7 0 1 0 11.4 0 a5.7 5.7 0 1 0 -11.4 0zM586.68 285 a5.7 5.7 0 1 0 11.4 0 a5.7 5.7 0 1 0 -11.4 0zM537.31 313.5 a5.7 5.7 0 1 0 11.4 0 a5.7 5.7 0 1 0 -11.4 0zM537.31 370.5 a5.7 5.7 0 1 0 11.4 0 a5.7 5.7 0 1 0 -11.4 0zM586.68 399 a5.7 5.7 0 1 0 11.4 0 a5.7 5.7 0 1 0 -11.4 0zM586.68 456 a5.7 5.7 0 1 0 11.4 0 a5.7 5.7 0 1 0 -11.4 0zM537.31 484.5 a5.7 5.7 0 1 0 11.4 0 a5.7 5.7 0 1 0 -11.4 0zM537.31 541.5 a5.7 5.7 0 1 0 11.4 0 a5.7 5.7 0 1 0 -11.4 0zM586.68 570 a5.7 5.7 0 1 0 11.4 0 a5.7 5.7 0 1 0 -11.4 0zM586.68 627 a5.7 5.7 0 1 0 11.4 0 a5.7 5.7 0 1 0 -11.4 0zM537.31 655.5 a5.7 5.7 0 1 0 11.4 0 a5.7 5.7 0 1 0 -11.4 0zM586.68 -57 a5.7 5.7 0 1 0 11.4 0 a5.7 5.7 0 1 0 -11.4 0zM636.04 -28.5 a5.7 5.7 0 1 0 11.4 0 a5.7 5.7 0 1 0 -11.4 0zM636.04 28.5 a5.7 5.7 0 1 0 11.4 0 a5.7 5.7 0 1 0 -11.4 0zM685.41 57 a5.7 5.7 0 1 0 11.4 0 a5.7 5.7 0 1 0 -11.4 0zM685.41 114 a5.7 5.7 0 1 0 11.4 0 a5.7 5.7 0 1 0 -11.4 0zM636.04 142.5 a5.7 5.7 0 1 0 11.4 0 a5.7 5.7 0 1 0 -11.4 0zM636.04 199.5 a5.7 5.7 0 1 0 11.4 0 a5.7 5.7 0 1 0 -11.4 0zM685.41 228 a5.7 5.7 0 1 0 11.4 0 a5.7 5.7 0 1 0 -11.4 0zM685.41 285 a5.7 5.7 0 1 0 11.4 0 a5.7 5.7 0 1 0 -11.4 0zM636.04 313.5 a5.7 5.7 0 1 0 11.4 0 a5.7 5.7 0 1 0 -11.4 0zM636.04 370.5 a5.7 5.7 0 1 0 11.4 0 a5.7 5.7 0 1 0 -11.4 0zM685.41 399 a5.7 5.7 0 1 0 11.4 0 a5.7 5.7 0 1 0 -11.4 0zM685.41 456 a5.7 5.7 0 1 0 11.4 0 a5.7 5.7 0 1 0 -11.4 0zM636.04 484.5 a5.7 5.7 0 1 0 11.4 0 a5.7 5.7 0 1 0 -11.4 0zM636.04 541.5 a5.7 5.7 0 1 0 11.4 0 a5.7 5.7 0 1 0 -11.4 0zM685.41 570 a5.7 5.7 0 1 0 11.4 0 a5.7 5.7 0 1 0 -11.4 0zM685.41 627 a5.7 5.7 0 1 0 11.4 0 a5.7 5.7 0 1 0 -11.4 0zM636.04 655.5 a5.7 5.7 0 1 0 11.4 0 a5.7 5.7 0 1 0 -11.4 0zM685.41 -57 a5.7 5.7 0 1 0 11.4 0 a5.7 5.7 0 1 0 -11.4 0zM734.77 -28.5 a5.7 5.7 0 1 0 11.4 0 a5.7 5.7 0 1 0 -11.4 0zM734.77 28.5 a5.7 5.7 0 1 0 11.4 0 a5.7 5.7 0 1 0 -11.4 0zM784.14 57 a5.7 5.7 0 1 0 11.4 0 a5.7 5.7 0 1 0 -11.4 0zM784.14 114 a5.7 5.7 0 1 0 11.4 0 a5.7 5.7 0 1 0 -11.4 0zM734.77 142.5 a5.7 5.7 0 1 0 11.4 0 a5.7 5.7 0 1 0 -11.4 0zM734.77 199.5 a5.7 5.7 0 1 0 11.4 0 a5.7 5.7 0 1 0 -11.4 0zM784.14 228 a5.7 5.7 0 1 0 11.4 0 a5.7 5.7 0 1 0 -11.4 0zM784.14 285 a5.7 5.7 0 1 0 11.4 0 a5.7 5.7 0 1 0 -11.4 0zM734.77 313.5 a5.7 5.7 0 1 0 11.4 0 a5.7 5.7 0 1 0 -11.4 0zM734.77 370.5 a5.7 5.7 0 1 0 11.4 0 a5.7 5.7 0 1 0 -11.4 0zM784.14 399 a5.7 5.7 0 1 0 11.4 0 a5.7 5.7 0 1 0 -11.4 0zM784.14 456 a5.7 5.7 0 1 0 11.4 0 a5.7 5.7 0 1 0 -11.4 0zM734.77 484.5 a5.7 5.7 0 1 0 11.4 0 a5.7 5.7 0 1 0 -11.4 0zM734.77 541.5 a5.7 5.7 0 1 0 11.4 0 a5.7 5.7 0 1 0 -11.4 0zM784.14 570 a5.7 5.7 0 1 0 11.4 0 a5.7 5.7 0 1 0 -11.4 0zM784.14 627 a5.7 5.7 0 1 0 11.4 0 a5.7 5.7 0 1 0 -11.4 0zM734.77 655.5 a5.7 5.7 0 1 0 11.4 0 a5.7 5.7 0 1 0 -11.4 0zM784.14 -57 a5.7 5.7 0 1 0 11.4 0 a5.7 5.7 0 1 0 -11.4 0zM833.5 -28.5 a5.7 5.7 0 1 0 11.4 0 a5.7 5.7 0 1 0 -11.4 0zM833.5 28.5 a5.7 5.7 0 1 0 11.4 0 a5.7 5.7 0 1 0 -11.4 0zM882.87 57 a5.7 5.7 0 1 0 11.4 0 a5.7 5.7 0 1 0 -11.4 0zM882.87 114 a5.7 5.7 0 1 0 11.4 0 a5.7 5.7 0 1 0 -11.4 0zM833.5 142.5 a5.7 5.7 0 1 0 11.4 0 a5.7 5.7 0 1 0 -11.4 0zM833.5 199.5 a5.7 5.7 0 1 0 11.4 0 a5.7 5.7 0 1 0 -11.4 0zM882.87 228 a5.7 5.7 0 1 0 11.4 0 a5.7 5.7 0 1 0 -11.4 0zM882.87 285 a5.7 5.7 0 1 0 11.4 0 a5.7 5.7 0 1 0 -11.4 0zM833.5 313.5 a5.7 5.7 0 1 0 11.4 0 a5.7 5.7 0 1 0 -11.4 0zM833.5 370.5 a5.7 5.7 0 1 0 11.4 0 a5.7 5.7 0 1 0 -11.4 0zM882.87 399 a5.7 5.7 0 1 0 11.4 0 a5.7 5.7 0 1 0 -11.4 0zM882.87 456 a5.7 5.7 0 1 0 11.4 0 a5.7 5.7 0 1 0 -11.4 0zM833.5 484.5 a5.7 5.7 0 1 0 11.4 0 a5.7 5.7 0 1 0 -11.4 0zM833.5 541.5 a5.7 5.7 0 1 0 11.4 0 a5.7 5.7 0 1 0 -11.4 0zM882.87 570 a5.7 5.7 0 1 0 11.4 0 a5.7 5.7 0 1 0 -11.4 0zM882.87 627 a5.7 5.7 0 1 0 11.4 0 a5.7 5.7 0 1 0 -11.4 0zM833.5 655.5 a5.7 5.7 0 1 0 11.4 0 a5.7 5.7 0 1 0 -11.4 0zM882.87 -57 a5.7 5.7 0 1 0 11.4 0 a5.7 5.7 0 1 0 -11.4 0zM932.23 -28.5 a5.7 5.7 0 1 0 11.4 0 a5.7 5.7 0 1 0 -11.4 0zM932.23 28.5 a5.7 5.7 0 1 0 11.4 0 a5.7 5.7 0 1 0 -11.4 0zM981.6 57 a5.7 5.7 0 1 0 11.4 0 a5.7 5.7 0 1 0 -11.4 0zM981.6 114 a5.7 5.7 0 1 0 11.4 0 a5.7 5.7 0 1 0 -11.4 0zM932.23 142.5 a5.7 5.7 0 1 0 11.4 0 a5.7 5.7 0 1 0 -11.4 0zM932.23 199.5 a5.7 5.7 0 1 0 11.4 0 a5.7 5.7 0 1 0 -11.4 0zM981.6 228 a5.7 5.7 0 1 0 11.4 0 a5.7 5.7 0 1 0 -11.4 0zM981.6 285 a5.7 5.7 0 1 0 11.4 0 a5.7 5.7 0 1 0 -11.4 0zM932.23 313.5 a5.7 5.7 0 1 0 11.4 0 a5.7 5.7 0 1 0 -11.4 0zM932.23 370.5 a5.7 5.7 0 1 0 11.4 0 a5.7 5.7 0 1 0 -11.4 0zM981.6 399 a5.7 5.7 0 1 0 11.4 0 a5.7 5.7 0 1 0 -11.4 0zM981.6 456 a5.7 5.7 0 1 0 11.4 0 a5.7 5.7 0 1 0 -11.4 0zM932.23 484.5 a5.7 5.7 0 1 0 11.4 0 a5.7 5.7 0 1 0 -11.4 0zM932.23 541.5 a5.7 5.7 0 1 0 11.4 0 a5.7 5.7 0 1 0 -11.4 0zM981.6 570 a5.7 5.7 0 1 0 11.4 0 a5.7 5.7 0 1 0 -11.4 0zM981.6 627 a5.7 5.7 0 1 0 11.4 0 a5.7 5.7 0 1 0 -11.4 0zM932.23 655.5 a5.7 5.7 0 1 0 11.4 0 a5.7 5.7 0 1 0 -11.4 0zM981.6 -57 a5.7 5.7 0 1 0 11.4 0 a5.7 5.7 0 1 0 -11.4 0zM1030.96 -28.5 a5.7 5.7 0 1 0 11.4 0 a5.7 5.7 0 1 0 -11.4 0zM1030.96 28.5 a5.7 5.7 0 1 0 11.4 0 a5.7 5.7 0 1 0 -11.4 0zM1080.33 57 a5.7 5.7 0 1 0 11.4 0 a5.7 5.7 0 1 0 -11.4 0zM1080.33 114 a5.7 5.7 0 1 0 11.4 0 a5.7 5.7 0 1 0 -11.4 0zM1030.96 142.5 a5.7 5.7 0 1 0 11.4 0 a5.7 5.7 0 1 0 -11.4 0zM1030.96 199.5 a5.7 5.7 0 1 0 11.4 0 a5.7 5.7 0 1 0 -11.4 0zM1080.33 228 a5.7 5.7 0 1 0 11.4 0 a5.7 5.7 0 1 0 -11.4 0zM1080.33 285 a5.7 5.7 0 1 0 11.4 0 a5.7 5.7 0 1 0 -11.4 0zM1030.96 313.5 a5.7 5.7 0 1 0 11.4 0 a5.7 5.7 0 1 0 -11.4 0zM1030.96 370.5 a5.7 5.7 0 1 0 11.4 0 a5.7 5.7 0 1 0 -11.4 0zM1080.33 399 a5.7 5.7 0 1 0 11.4 0 a5.7 5.7 0 1 0 -11.4 0zM1080.33 456 a5.7 5.7 0 1 0 11.4 0 a5.7 5.7 0 1 0 -11.4 0zM1030.96 484.5 a5.7 5.7 0 1 0 11.4 0 a5.7 5.7 0 1 0 -11.4 0zM1030.96 541.5 a5.7 5.7 0 1 0 11.4 0 a5.7 5.7 0 1 0 -11.4 0zM1080.33 570 a5.7 5.7 0 1 0 11.4 0 a5.7 5.7 0 1 0 -11.4 0zM1080.33 627 a5.7 5.7 0 1 0 11.4 0 a5.7 5.7 0 1 0 -11.4 0zM1030.96 655.5 a5.7 5.7 0 1 0 11.4 0 a5.7 5.7 0 1 0 -11.4 0zM1080.33 -57 a5.7 5.7 0 1 0 11.4 0 a5.7 5.7 0 1 0 -11.4 0zM1129.69 -28.5 a5.7 5.7 0 1 0 11.4 0 a5.7 5.7 0 1 0 -11.4 0zM1129.69 28.5 a5.7 5.7 0 1 0 11.4 0 a5.7 5.7 0 1 0 -11.4 0zM1179.06 57 a5.7 5.7 0 1 0 11.4 0 a5.7 5.7 0 1 0 -11.4 0zM1179.06 114 a5.7 5.7 0 1 0 11.4 0 a5.7 5.7 0 1 0 -11.4 0zM1129.69 142.5 a5.7 5.7 0 1 0 11.4 0 a5.7 5.7 0 1 0 -11.4 0zM1129.69 199.5 a5.7 5.7 0 1 0 11.4 0 a5.7 5.7 0 1 0 -11.4 0zM1179.06 228 a5.7 5.7 0 1 0 11.4 0 a5.7 5.7 0 1 0 -11.4 0zM1179.06 285 a5.7 5.7 0 1 0 11.4 0 a5.7 5.7 0 1 0 -11.4 0zM1129.69 313.5 a5.7 5.7 0 1 0 11.4 0 a5.7 5.7 0 1 0 -11.4 0zM1129.69 370.5 a5.7 5.7 0 1 0 11.4 0 a5.7 5.7 0 1 0 -11.4 0zM1179.06 399 a5.7 5.7 0 1 0 11.4 0 a5.7 5.7 0 1 0 -11.4 0zM1179.06 456 a5.7 5.7 0 1 0 11.4 0 a5.7 5.7 0 1 0 -11.4 0zM1129.69 484.5 a5.7 5.7 0 1 0 11.4 0 a5.7 5.7 0 1 0 -11.4 0zM1129.69 541.5 a5.7 5.7 0 1 0 11.4 0 a5.7 5.7 0 1 0 -11.4 0zM1179.06 570 a5.7 5.7 0 1 0 11.4 0 a5.7 5.7 0 1 0 -11.4 0zM1179.06 627 a5.7 5.7 0 1 0 11.4 0 a5.7 5.7 0 1 0 -11.4 0zM1129.69 655.5 a5.7 5.7 0 1 0 11.4 0 a5.7 5.7 0 1 0 -11.4 0zM1179.06 -57 a5.7 5.7 0 1 0 11.4 0 a5.7 5.7 0 1 0 -11.4 0zM1228.42 -28.5 a5.7 5.7 0 1 0 11.4 0 a5.7 5.7 0 1 0 -11.4 0zM1228.42 28.5 a5.7 5.7 0 1 0 11.4 0 a5.7 5.7 0 1 0 -11.4 0zM1277.79 57 a5.7 5.7 0 1 0 11.4 0 a5.7 5.7 0 1 0 -11.4 0zM1277.79 114 a5.7 5.7 0 1 0 11.4 0 a5.7 5.7 0 1 0 -11.4 0zM1228.42 142.5 a5.7 5.7 0 1 0 11.4 0 a5.7 5.7 0 1 0 -11.4 0zM1228.42 199.5 a5.7 5.7 0 1 0 11.4 0 a5.7 5.7 0 1 0 -11.4 0zM1277.79 228 a5.7 5.7 0 1 0 11.4 0 a5.7 5.7 0 1 0 -11.4 0zM1277.79 285 a5.7 5.7 0 1 0 11.4 0 a5.7 5.7 0 1 0 -11.4 0zM1228.42 313.5 a5.7 5.7 0 1 0 11.4 0 a5.7 5.7 0 1 0 -11.4 0zM1228.42 370.5 a5.7 5.7 0 1 0 11.4 0 a5.7 5.7 0 1 0 -11.4 0zM1277.79 399 a5.7 5.7 0 1 0 11.4 0 a5.7 5.7 0 1 0 -11.4 0zM1277.79 456 a5.7 5.7 0 1 0 11.4 0 a5.7 5.7 0 1 0 -11.4 0zM1228.42 484.5 a5.7 5.7 0 1 0 11.4 0 a5.7 5.7 0 1 0 -11.4 0zM1228.42 541.5 a5.7 5.7 0 1 0 11.4 0 a5.7 5.7 0 1 0 -11.4 0zM1277.79 570 a5.7 5.7 0 1 0 11.4 0 a5.7 5.7 0 1 0 -11.4 0zM1277.79 627 a5.7 5.7 0 1 0 11.4 0 a5.7 5.7 0 1 0 -11.4 0zM1228.42 655.5 a5.7 5.7 0 1 0 11.4 0 a5.7 5.7 0 1 0 -11.4 0zM1277.79 -57 a5.7 5.7 0 1 0 11.4 0 a5.7 5.7 0 1 0 -11.4 0zM1327.15 -28.5 a5.7 5.7 0 1 0 11.4 0 a5.7 5.7 0 1 0 -11.4 0zM1327.15 28.5 a5.7 5.7 0 1 0 11.4 0 a5.7 5.7 0 1 0 -11.4 0zM1376.52 57 a5.7 5.7 0 1 0 11.4 0 a5.7 5.7 0 1 0 -11.4 0zM1376.52 114 a5.7 5.7 0 1 0 11.4 0 a5.7 5.7 0 1 0 -11.4 0zM1327.15 142.5 a5.7 5.7 0 1 0 11.4 0 a5.7 5.7 0 1 0 -11.4 0zM1327.15 199.5 a5.7 5.7 0 1 0 11.4 0 a5.7 5.7 0 1 0 -11.4 0zM1376.52 228 a5.7 5.7 0 1 0 11.4 0 a5.7 5.7 0 1 0 -11.4 0zM1376.52 285 a5.7 5.7 0 1 0 11.4 0 a5.7 5.7 0 1 0 -11.4 0zM1327.15 313.5 a5.7 5.7 0 1 0 11.4 0 a5.7 5.7 0 1 0 -11.4 0zM1327.15 370.5 a5.7 5.7 0 1 0 11.4 0 a5.7 5.7 0 1 0 -11.4 0zM1376.52 399 a5.7 5.7 0 1 0 11.4 0 a5.7 5.7 0 1 0 -11.4 0zM1376.52 456 a5.7 5.7 0 1 0 11.4 0 a5.7 5.7 0 1 0 -11.4 0zM1327.15 484.5 a5.7 5.7 0 1 0 11.4 0 a5.7 5.7 0 1 0 -11.4 0zM1327.15 541.5 a5.7 5.7 0 1 0 11.4 0 a5.7 5.7 0 1 0 -11.4 0zM1376.52 570 a5.7 5.7 0 1 0 11.4 0 a5.7 5.7 0 1 0 -11.4 0zM1376.52 627 a5.7 5.7 0 1 0 11.4 0 a5.7 5.7 0 1 0 -11.4 0zM1327.15 655.5 a5.7 5.7 0 1 0 11.4 0 a5.7 5.7 0 1 0 -11.4 0zM1376.52 -57 a5.7 5.7 0 1 0 11.4 0 a5.7 5.7 0 1 0 -11.4 0zM1425.88 -28.5 a5.7 5.7 0 1 0 11.4 0 a5.7 5.7 0 1 0 -11.4 0zM1425.88 28.5 a5.7 5.7 0 1 0 11.4 0 a5.7 5.7 0 1 0 -11.4 0zM1475.25 57 a5.7 5.7 0 1 0 11.4 0 a5.7 5.7 0 1 0 -11.4 0zM1475.25 114 a5.7 5.7 0 1 0 11.4 0 a5.7 5.7 0 1 0 -11.4 0zM1425.88 142.5 a5.7 5.7 0 1 0 11.4 0 a5.7 5.7 0 1 0 -11.4 0zM1425.88 199.5 a5.7 5.7 0 1 0 11.4 0 a5.7 5.7 0 1 0 -11.4 0zM1475.25 228 a5.7 5.7 0 1 0 11.4 0 a5.7 5.7 0 1 0 -11.4 0zM1475.25 285 a5.7 5.7 0 1 0 11.4 0 a5.7 5.7 0 1 0 -11.4 0zM1425.88 313.5 a5.7 5.7 0 1 0 11.4 0 a5.7 5.7 0 1 0 -11.4 0zM1425.88 370.5 a5.7 5.7 0 1 0 11.4 0 a5.7 5.7 0 1 0 -11.4 0zM1475.25 399 a5.7 5.7 0 1 0 11.4 0 a5.7 5.7 0 1 0 -11.4 0zM1475.25 456 a5.7 5.7 0 1 0 11.4 0 a5.7 5.7 0 1 0 -11.4 0zM1425.88 484.5 a5.7 5.7 0 1 0 11.4 0 a5.7 5.7 0 1 0 -11.4 0zM1425.88 541.5 a5.7 5.7 0 1 0 11.4 0 a5.7 5.7 0 1 0 -11.4 0zM1475.25 570 a5.7 5.7 0 1 0 11.4 0 a5.7 5.7 0 1 0 -11.4 0zM1475.25 627 a5.7 5.7 0 1 0 11.4 0 a5.7 5.7 0 1 0 -11.4 0zM1425.88 655.5 a5.7 5.7 0 1 0 11.4 0 a5.7 5.7 0 1 0 -11.4 0z" fill="rgba(183, 133, 22, 0.06)"></path>
        <path d="M22.03 16.71L42.81 28.71L42.81 52.71L22.03 64.71L1.24 52.71L1.24 28.71zM1.24 268.71L22.03 280.71L22.03 304.71L1.24 316.71L-19.55 304.71L-19.55 280.71zM22.03 520.71L42.81 532.71L42.81 556.71L22.03 568.71L1.24 556.71L1.24 532.71zM1.24 556.71L22.03 568.71L22.03 592.71L1.24 604.71L-19.55 592.71L-19.55 568.71zM42.81 -19.29L63.6 -7.29L63.6 16.71L42.81 28.71L22.03 16.71L22.03 -7.29zM63.6 16.71L84.38 28.71L84.38 52.71L63.6 64.71L42.81 52.71L42.81 28.71zM84.38 -19.29L105.17 -7.29L105.17 16.71L84.38 28.71L63.6 16.71L63.6 -7.29zM105.17 16.71L125.95 28.71L125.95 52.71L105.17 64.71L84.38 52.71L84.38 28.71zM105.17 304.71L125.95 316.71L125.95 340.71L105.17 352.71L84.38 340.71L84.38 316.71zM105.17 448.71L125.95 460.71L125.95 484.71L105.17 496.71L84.38 484.71L84.38 460.71zM84.38 484.71L105.17 496.71L105.17 520.71L84.38 532.71L63.6 520.71L63.6 496.71zM125.95 -19.29L146.74 -7.29L146.74 16.71L125.95 28.71L105.17 16.71L105.17 -7.29zM146.74 16.71L167.52 28.71L167.52 52.71L146.74 64.71L125.95 52.71L125.95 28.71zM125.95 52.71L146.74 64.71L146.74 88.71L125.95 100.71L105.17 88.71L105.17 64.71zM146.74 88.71L167.52 100.71L167.52 124.71L146.74 136.71L125.95 124.71L125.95 100.71zM146.74 304.71L167.52 316.71L167.52 340.71L146.74 352.71L125.95 340.71L125.95 316.71zM146.74 376.71L167.52 388.71L167.52 412.71L146.74 424.71L125.95 412.71L125.95 388.71zM146.74 520.71L167.52 532.71L167.52 556.71L146.74 568.71L125.95 556.71L125.95 532.71zM125.95 556.71L146.74 568.71L146.74 592.71L125.95 604.71L105.17 592.71L105.17 568.71zM167.52 52.71L188.31 64.71L188.31 88.71L167.52 100.71L146.74 88.71L146.74 64.71zM188.31 160.71L209.09 172.71L209.09 196.71L188.31 208.71L167.52 196.71L167.52 172.71zM167.52 196.71L188.31 208.71L188.31 232.71L167.52 244.71L146.74 232.71L146.74 208.71zM167.52 340.71L188.31 352.71L188.31 376.71L167.52 388.71L146.74 376.71L146.74 352.71zM188.31 520.71L209.09 532.71L209.09 556.71L188.31 568.71L167.52 556.71L167.52 532.71zM209.09 -19.29L229.88 -7.29L229.88 16.71L209.09 28.71L188.31 16.71L188.31 -7.29zM229.88 160.71L250.66 172.71L250.66 196.71L229.88 208.71L209.09 196.71L209.09 172.71zM209.09 196.71L229.88 208.71L229.88 232.71L209.09 244.71L188.31 232.71L188.31 208.71zM229.88 304.71L250.66 316.71L250.66 340.71L229.88 352.71L209.09 340.71L209.09 316.71zM209.09 556.71L229.88 568.71L229.88 592.71L209.09 604.71L188.31 592.71L188.31 568.71zM250.66 52.71L271.45 64.71L271.45 88.71L250.66 100.71L229.88 88.71L229.88 64.71zM250.66 124.71L271.45 136.71L271.45 160.71L250.66 172.71L229.88 160.71L229.88 136.71zM271.45 160.71L292.23 172.71L292.23 196.71L271.45 208.71L250.66 196.71L250.66 172.71zM250.66 196.71L271.45 208.71L271.45 232.71L250.66 244.71L229.88 232.71L229.88 208.71zM271.45 232.71L292.23 244.71L292.23 268.71L271.45 280.71L250.66 268.71L250.66 244.71zM271.45 520.71L292.23 532.71L292.23 556.71L271.45 568.71L250.66 556.71L250.66 532.71zM292.23 52.71L313.02 64.71L313.02 88.71L292.23 100.71L271.45 88.71L271.45 64.71zM313.02 88.71L333.8 100.71L333.8 124.71L313.02 136.71L292.23 124.71L292.23 100.71zM292.23 124.71L313.02 136.71L313.02 160.71L292.23 172.71L271.45 160.71L271.45 136.71zM313.02 160.71L333.8 172.71L333.8 196.71L313.02 208.71L292.23 196.71L292.23 172.71zM292.23 556.71L313.02 568.71L313.02 592.71L292.23 604.71L271.45 592.71L271.45 568.71zM333.8 124.71L354.59 136.71L354.59 160.71L333.8 172.71L313.02 160.71L313.02 136.71zM354.59 232.71L375.37 244.71L375.37 268.71L354.59 280.71L333.8 268.71L333.8 244.71zM333.8 340.71L354.59 352.71L354.59 376.71L333.8 388.71L313.02 376.71L313.02 352.71zM354.59 376.71L375.37 388.71L375.37 412.71L354.59 424.71L333.8 412.71L333.8 388.71zM333.8 412.71L354.59 424.71L354.59 448.71L333.8 460.71L313.02 448.71L313.02 424.71zM375.37 -19.29L396.16 -7.29L396.16 16.71L375.37 28.71L354.59 16.71L354.59 -7.29zM396.16 16.71L416.94 28.71L416.94 52.71L396.16 64.71L375.37 52.71L375.37 28.71zM375.37 340.71L396.16 352.71L396.16 376.71L375.37 388.71L354.59 376.71L354.59 352.71zM396.16 376.71L416.94 388.71L416.94 412.71L396.16 424.71L375.37 412.71L375.37 388.71zM375.37 484.71L396.16 496.71L396.16 520.71L375.37 532.71L354.59 520.71L354.59 496.71zM396.16 520.71L416.94 532.71L416.94 556.71L396.16 568.71L375.37 556.71L375.37 532.71zM375.37 556.71L396.16 568.71L396.16 592.71L375.37 604.71L354.59 592.71L354.59 568.71zM416.94 268.71L437.73 280.71L437.73 304.71L416.94 316.71L396.16 304.71L396.16 280.71zM437.73 376.71L458.51 388.71L458.51 412.71L437.73 424.71L416.94 412.71L416.94 388.71zM458.51 124.71L479.3 136.71L479.3 160.71L458.51 172.71L437.73 160.71L437.73 136.71zM458.51 196.71L479.3 208.71L479.3 232.71L458.51 244.71L437.73 232.71L437.73 208.71zM458.51 556.71L479.3 568.71L479.3 592.71L458.51 604.71L437.73 592.71L437.73 568.71zM520.87 88.71L541.66 100.71L541.66 124.71L520.87 136.71L500.08 124.71L500.08 100.71zM520.87 232.71L541.66 244.71L541.66 268.71L520.87 280.71L500.08 268.71L500.08 244.71zM500.08 268.71L520.87 280.71L520.87 304.71L500.08 316.71L479.3 304.71L479.3 280.71zM520.87 304.71L541.66 316.71L541.66 340.71L520.87 352.71L500.08 340.71L500.08 316.71zM562.44 16.71L583.23 28.71L583.23 52.71L562.44 64.71L541.66 52.71L541.66 28.71zM562.44 88.71L583.23 100.71L583.23 124.71L562.44 136.71L541.66 124.71L541.66 100.71zM562.44 160.71L583.23 172.71L583.23 196.71L562.44 208.71L541.66 196.71L541.66 172.71zM541.66 196.71L562.44 208.71L562.44 232.71L541.66 244.71L520.87 232.71L520.87 208.71zM562.44 376.71L583.23 388.71L583.23 412.71L562.44 424.71L541.66 412.71L541.66 388.71zM562.44 520.71L583.23 532.71L583.23 556.71L562.44 568.71L541.66 556.71L541.66 532.71zM604.01 88.71L624.8 100.71L624.8 124.71L604.01 136.71L583.23 124.71L583.23 100.71zM604.01 160.71L624.8 172.71L624.8 196.71L604.01 208.71L583.23 196.71L583.23 172.71zM604.01 304.71L624.8 316.71L624.8 340.71L604.01 352.71L583.23 340.71L583.23 316.71zM583.23 412.71L604.01 424.71L604.01 448.71L583.23 460.71L562.44 448.71L562.44 424.71zM645.58 16.71L666.37 28.71L666.37 52.71L645.58 64.71L624.8 52.71L624.8 28.71zM624.8 124.71L645.58 136.71L645.58 160.71L624.8 172.71L604.01 160.71L604.01 136.71zM624.8 340.71L645.58 352.71L645.58 376.71L624.8 388.71L604.01 376.71L604.01 352.71zM645.58 376.71L666.37 388.71L666.37 412.71L645.58 424.71L624.8 412.71L624.8 388.71zM624.8 412.71L645.58 424.71L645.58 448.71L624.8 460.71L604.01 448.71L604.01 424.71zM645.58 520.71L666.37 532.71L666.37 556.71L645.58 568.71L624.8 556.71L624.8 532.71zM666.37 -19.29L687.15 -7.29L687.15 16.71L666.37 28.71L645.58 16.71L645.58 -7.29zM687.15 88.71L707.94 100.71L707.94 124.71L687.15 136.71L666.37 124.71L666.37 100.71zM666.37 484.71L687.15 496.71L687.15 520.71L666.37 532.71L645.58 520.71L645.58 496.71zM707.94 340.71L728.72 352.71L728.72 376.71L707.94 388.71L687.15 376.71L687.15 352.71zM707.94 484.71L728.72 496.71L728.72 520.71L707.94 532.71L687.15 520.71L687.15 496.71zM749.51 -19.29L770.29 -7.29L770.29 16.71L749.51 28.71L728.72 16.71L728.72 -7.29zM770.29 16.71L791.08 28.71L791.08 52.71L770.29 64.71L749.51 52.71L749.51 28.71zM749.51 52.71L770.29 64.71L770.29 88.71L749.51 100.71L728.72 88.71L728.72 64.71zM770.29 160.71L791.08 172.71L791.08 196.71L770.29 208.71L749.51 196.71L749.51 172.71zM770.29 304.71L791.08 316.71L791.08 340.71L770.29 352.71L749.51 340.71L749.51 316.71zM749.51 412.71L770.29 424.71L770.29 448.71L749.51 460.71L728.72 448.71L728.72 424.71zM749.51 556.71L770.29 568.71L770.29 592.71L749.51 604.71L728.72 592.71L728.72 568.71zM811.86 232.71L832.65 244.71L832.65 268.71L811.86 280.71L791.08 268.71L791.08 244.71zM811.86 304.71L832.65 316.71L832.65 340.71L811.86 352.71L791.08 340.71L791.08 316.71zM832.65 52.71L853.43 64.71L853.43 88.71L832.65 100.71L811.86 88.71L811.86 64.71zM832.65 124.71L853.43 136.71L853.43 160.71L832.65 172.71L811.86 160.71L811.86 136.71zM853.43 232.71L874.22 244.71L874.22 268.71L853.43 280.71L832.65 268.71L832.65 244.71zM832.65 268.71L853.43 280.71L853.43 304.71L832.65 316.71L811.86 304.71L811.86 280.71zM832.65 484.71L853.43 496.71L853.43 520.71L832.65 532.71L811.86 520.71L811.86 496.71zM874.22 -19.29L895 -7.29L895 16.71L874.22 28.71L853.43 16.71L853.43 -7.29zM895 16.71L915.79 28.71L915.79 52.71L895 64.71L874.22 52.71L874.22 28.71zM895 304.71L915.79 316.71L915.79 340.71L895 352.71L874.22 340.71L874.22 316.71zM895 376.71L915.79 388.71L915.79 412.71L895 424.71L874.22 412.71L874.22 388.71zM874.22 412.71L895 424.71L895 448.71L874.22 460.71L853.43 448.71L853.43 424.71zM874.22 484.71L895 496.71L895 520.71L874.22 532.71L853.43 520.71L853.43 496.71zM895 520.71L915.79 532.71L915.79 556.71L895 568.71L874.22 556.71L874.22 532.71zM936.57 16.71L957.36 28.71L957.36 52.71L936.57 64.71L915.79 52.71L915.79 28.71zM915.79 52.71L936.57 64.71L936.57 88.71L915.79 100.71L895 88.71L895 64.71zM936.57 88.71L957.36 100.71L957.36 124.71L936.57 136.71L915.79 124.71L915.79 100.71zM936.57 232.71L957.36 244.71L957.36 268.71L936.57 280.71L915.79 268.71L915.79 244.71zM915.79 268.71L936.57 280.71L936.57 304.71L915.79 316.71L895 304.71L895 280.71zM936.57 376.71L957.36 388.71L957.36 412.71L936.57 424.71L915.79 412.71L915.79 388.71zM978.14 16.71L998.93 28.71L998.93 52.71L978.14 64.71L957.36 52.71L957.36 28.71zM957.36 52.71L978.14 64.71L978.14 88.71L957.36 100.71L936.57 88.71L936.57 64.71zM978.14 448.71L998.93 460.71L998.93 484.71L978.14 496.71L957.36 484.71L957.36 460.71zM978.14 520.71L998.93 532.71L998.93 556.71L978.14 568.71L957.36 556.71L957.36 532.71zM957.36 556.71L978.14 568.71L978.14 592.71L957.36 604.71L936.57 592.71L936.57 568.71zM1019.71 16.71L1040.5 28.71L1040.5 52.71L1019.71 64.71L998.93 52.71L998.93 28.71zM1019.71 160.71L1040.5 172.71L1040.5 196.71L1019.71 208.71L998.93 196.71L998.93 172.71zM998.93 196.71L1019.71 208.71L1019.71 232.71L998.93 244.71L978.14 232.71L978.14 208.71zM1019.71 232.71L1040.5 244.71L1040.5 268.71L1019.71 280.71L998.93 268.71L998.93 244.71zM998.93 268.71L1019.71 280.71L1019.71 304.71L998.93 316.71L978.14 304.71L978.14 280.71zM1019.71 448.71L1040.5 460.71L1040.5 484.71L1019.71 496.71L998.93 484.71L998.93 460.71zM1061.29 160.71L1082.07 172.71L1082.07 196.71L1061.29 208.71L1040.5 196.71L1040.5 172.71zM1040.5 196.71L1061.29 208.71L1061.29 232.71L1040.5 244.71L1019.71 232.71L1019.71 208.71zM1061.29 232.71L1082.07 244.71L1082.07 268.71L1061.29 280.71L1040.5 268.71L1040.5 244.71zM1061.29 304.71L1082.07 316.71L1082.07 340.71L1061.29 352.71L1040.5 340.71L1040.5 316.71zM1040.5 484.71L1061.29 496.71L1061.29 520.71L1040.5 532.71L1019.71 520.71L1019.71 496.71zM1061.29 520.71L1082.07 532.71L1082.07 556.71L1061.29 568.71L1040.5 556.71L1040.5 532.71zM1082.07 412.71L1102.86 424.71L1102.86 448.71L1082.07 460.71L1061.29 448.71L1061.29 424.71zM1102.86 520.71L1123.64 532.71L1123.64 556.71L1102.86 568.71L1082.07 556.71L1082.07 532.71zM1123.64 -19.29L1144.43 -7.29L1144.43 16.71L1123.64 28.71L1102.86 16.71L1102.86 -7.29zM1144.43 88.71L1165.21 100.71L1165.21 124.71L1144.43 136.71L1123.64 124.71L1123.64 100.71zM1123.64 124.71L1144.43 136.71L1144.43 160.71L1123.64 172.71L1102.86 160.71L1102.86 136.71zM1123.64 196.71L1144.43 208.71L1144.43 232.71L1123.64 244.71L1102.86 232.71L1102.86 208.71zM1144.43 232.71L1165.21 244.71L1165.21 268.71L1144.43 280.71L1123.64 268.71L1123.64 244.71zM1123.64 556.71L1144.43 568.71L1144.43 592.71L1123.64 604.71L1102.86 592.71L1102.86 568.71zM1165.21 52.71L1186 64.71L1186 88.71L1165.21 100.71L1144.43 88.71L1144.43 64.71zM1165.21 196.71L1186 208.71L1186 232.71L1165.21 244.71L1144.43 232.71L1144.43 208.71zM1165.21 484.71L1186 496.71L1186 520.71L1165.21 532.71L1144.43 520.71L1144.43 496.71zM1206.78 52.71L1227.57 64.71L1227.57 88.71L1206.78 100.71L1186 88.71L1186 64.71zM1206.78 124.71L1227.57 136.71L1227.57 160.71L1206.78 172.71L1186 160.71L1186 136.71zM1227.57 160.71L1248.35 172.71L1248.35 196.71L1227.57 208.71L1206.78 196.71L1206.78 172.71zM1206.78 340.71L1227.57 352.71L1227.57 376.71L1206.78 388.71L1186 376.71L1186 352.71zM1227.57 376.71L1248.35 388.71L1248.35 412.71L1227.57 424.71L1206.78 412.71L1206.78 388.71zM1206.78 556.71L1227.57 568.71L1227.57 592.71L1206.78 604.71L1186 592.71L1186 568.71zM1269.14 16.71L1289.92 28.71L1289.92 52.71L1269.14 64.71L1248.35 52.71L1248.35 28.71zM1248.35 124.71L1269.14 136.71L1269.14 160.71L1248.35 172.71L1227.57 160.71L1227.57 136.71zM1269.14 304.71L1289.92 316.71L1289.92 340.71L1269.14 352.71L1248.35 340.71L1248.35 316.71zM1289.92 52.71L1310.71 64.71L1310.71 88.71L1289.92 100.71L1269.14 88.71L1269.14 64.71zM1310.71 88.71L1331.49 100.71L1331.49 124.71L1310.71 136.71L1289.92 124.71L1289.92 100.71zM1289.92 340.71L1310.71 352.71L1310.71 376.71L1289.92 388.71L1269.14 376.71L1269.14 352.71zM1289.92 412.71L1310.71 424.71L1310.71 448.71L1289.92 460.71L1269.14 448.71L1269.14 424.71zM1310.71 448.71L1331.49 460.71L1331.49 484.71L1310.71 496.71L1289.92 484.71L1289.92 460.71zM1289.92 556.71L1310.71 568.71L1310.71 592.71L1289.92 604.71L1269.14 592.71L1269.14 568.71zM1331.49 -19.29L1352.28 -7.29L1352.28 16.71L1331.49 28.71L1310.71 16.71L1310.71 -7.29zM1352.28 16.71L1373.06 28.71L1373.06 52.71L1352.28 64.71L1331.49 52.71L1331.49 28.71zM1331.49 124.71L1352.28 136.71L1352.28 160.71L1331.49 172.71L1310.71 160.71L1310.71 136.71zM1331.49 196.71L1352.28 208.71L1352.28 232.71L1331.49 244.71L1310.71 232.71L1310.71 208.71zM1331.49 340.71L1352.28 352.71L1352.28 376.71L1331.49 388.71L1310.71 376.71L1310.71 352.71zM1331.49 484.71L1352.28 496.71L1352.28 520.71L1331.49 532.71L1310.71 520.71L1310.71 496.71zM1393.85 16.71L1414.63 28.71L1414.63 52.71L1393.85 64.71L1373.06 52.71L1373.06 28.71zM1393.85 376.71L1414.63 388.71L1414.63 412.71L1393.85 424.71L1373.06 412.71L1373.06 388.71zM1414.63 -19.29L1435.42 -7.29L1435.42 16.71L1414.63 28.71L1393.85 16.71L1393.85 -7.29zM1435.42 16.71L1456.2 28.71L1456.2 52.71L1435.42 64.71L1414.63 52.71L1414.63 28.71zM1435.42 232.71L1456.2 244.71L1456.2 268.71L1435.42 280.71L1414.63 268.71L1414.63 244.71zM1435.42 304.71L1456.2 316.71L1456.2 340.71L1435.42 352.71L1414.63 340.71L1414.63 316.71zM1414.63 340.71L1435.42 352.71L1435.42 376.71L1414.63 388.71L1393.85 376.71L1393.85 352.71zM1435.42 376.71L1456.2 388.71L1456.2 412.71L1435.42 424.71L1414.63 412.71L1414.63 388.71zM1414.63 412.71L1435.42 424.71L1435.42 448.71L1414.63 460.71L1393.85 448.71L1393.85 424.71zM1414.63 484.71L1435.42 496.71L1435.42 520.71L1414.63 532.71L1393.85 520.71L1393.85 496.71z" stroke="rgba(183, 124, 18, 0.1)" stroke-width="2"></path>
    </g>
    <defs>
        <mask id="SvgjsMask1077">
            <rect width="1440" height="560" fill="#ffffff"></rect>
        </mask>
    </defs>
</svg>