<svg id="Layer_1" data-name="Layer 1" xmlns="http://www.w3.org/2000/svg" viewBox="0 0 1287.05 335.8">
    <defs>
        <style>
            .cls-1 {
                fill: #ea5b0c;
            }

            .cls-2,
            .cls-3 {
                fill: #3c3c3b;
            }

            .cls-3 {
                stroke: #3c3c3b;
                stroke-miterlimit: 10;
            }
        </style>
    </defs>
    <g id="Calque_7" data-name="Calque 7">
        <path class="cls-1"
            d="M152.69,345.54a.5.5,0,0,1-.5-.5V311.87a.5.5,0,0,1,.5-.5h.49c4.12,0,7.92-.16,11.3-.48a35.17,35.17,0,0,0,9-2,28.86,28.86,0,0,0,7.56-4.32,33.17,33.17,0,0,0,6.6-7.33A78.59,78.59,0,0,0,194,286.53c2.08-4.16,4.29-9.24,6.57-15.08s4.8-12.67,7.56-20.35c3-8.41,6.12-17.23,9.27-26.22q3.79-10.68,8-22.74l.24-.68q4.38-12.4,9.49-27v-.16a.5.5,0,0,1,.5-.5h34.88a.49.49,0,0,1,.42.24.48.48,0,0,1,0,.48l-.24.49q-4.12,11.16-8,21.79l-7.33,19.88c-8.09,22.66-15.43,42.4-21.83,58.67s-13.37,29.77-20.67,40c-7.32,10.58-15.71,18.35-24.93,23.08s-20.9,7.13-34.75,7.13h-.49Zm29.9-79.36a.49.49,0,0,1-.44-.27l-48-90.83a.5.5,0,0,1,0-.49.52.52,0,0,1,.42-.25l34.66-.55a.5.5,0,0,1,.35.14.48.48,0,0,1,.15.36v.13l27.43,54.67a.53.53,0,0,1,0,.41l-14.17,36.36a.5.5,0,0,1-.44.32Z"
            transform="translate(-10.44 -10.4)" />
        <path class="cls-1"
            d="M270.51,174.29l-.24.49q-4.15,11.22-8,21.84t-7.33,19.88q-12.19,34.16-21.83,58.66T212.44,315q-11,15.85-24.75,22.93t-34.52,7.08h-.49V311.88h.49c4.23,0,8-.17,11.34-.49a35.47,35.47,0,0,0,9.14-2.07,28.76,28.76,0,0,0,7.69-4.4,33.83,33.83,0,0,0,6.7-7.43,78.06,78.06,0,0,0,6.34-10.73q3.17-6.35,6.59-15.13t7.56-20.37q4.14-11.58,9.27-26.22,3.9-11,8.29-23.41t9.52-27.08v-.25h34.9m-101.23,0v.25l27.48,54.78-14.17,36.36-48-90.83,34.66-.56m0-1h0l-34.65.55a1,1,0,0,0-.84.49,1,1,0,0,0,0,1l48,90.83a1,1,0,0,0,.88.53h.06a1,1,0,0,0,.87-.64l14.17-36.36a1,1,0,0,0,0-.81l-27.37-54.57h0a1,1,0,0,0-.3-.71,1.11,1.11,0,0,0-.71-.28Zm101.23,0H235.63a1,1,0,0,0-1,1v.08c-2.92,8.35-5.93,16.91-9.46,26.91l-.23.65q-4.26,12.07-8.06,22.77c-3.14,9-6.26,17.8-9.27,26.22-2.75,7.68-5.29,14.52-7.55,20.34s-4.48,10.89-6.55,15a76.82,76.82,0,0,1-6.26,10.59,32.85,32.85,0,0,1-6.51,7.24,28.45,28.45,0,0,1-7.43,4.25,34.07,34.07,0,0,1-8.88,2c-3.35.32-7.14.48-11.25.48h-.49a1,1,0,0,0-1,1V345a1,1,0,0,0,1,1h.49c13.93,0,25.7-2.42,35-7.19s17.75-12.6,25.12-23.25c7.32-10.24,14.29-23.73,20.72-40.08s13.74-36,21.84-58.69q1.57-4.29,3.27-8.87l4.05-11c2.58-7.06,5.27-14.34,8-21.79l.22-.44a1,1,0,0,0-.9-1.44Z"
            transform="translate(-10.44 -10.4)" />
        <path class="cls-1"
            d="M473.66,293.64a.51.51,0,0,1-.41-.21L352.67,119.49V293.14a.5.5,0,0,1-.5.5H294a.5.5,0,0,1-.5-.5V14.33a.5.5,0,0,1,.5-.5h58.15a.51.51,0,0,1,.41.21L532.22,272.93a.48.48,0,0,1,.09.29v19.92a.5.5,0,0,1-.5.5ZM531.81,239a.49.49,0,0,1-.41-.22l-58.15-85.3a.47.47,0,0,1-.09-.28V11.4a.48.48,0,0,1,.16-.36.49.49,0,0,1,.34-.14l58.18,2.93a.49.49,0,0,1,.47.5V238.47a.5.5,0,0,1-.35.48Z"
            transform="translate(-10.44 -10.4)" />
        <path class="cls-1"
            d="M473.66,11.4l58.15,2.93V238.47l-58.15-85.3V11.4M352.17,14.33,531.81,273.22v19.92H473.66L352.17,117.89V293.14H294V14.33h58.15M473.66,10.4a1,1,0,0,0-1,1V153.17a1,1,0,0,0,.17.56L531,239a1,1,0,0,0,.83.44.92.92,0,0,0,.29,0,1,1,0,0,0,.71-1V14.33a1,1,0,0,0-.95-1L473.71,10.4ZM352.17,13.33H294a1,1,0,0,0-1,1V293.14a1,1,0,0,0,1,1h58.15a1,1,0,0,0,1-1v-172L472.84,293.7a1,1,0,0,0,.82.43h58.15a1,1,0,0,0,1-1V273.21a1,1,0,0,0-.18-.57L353,13.76a1,1,0,0,0-.83-.43Z"
            transform="translate(-10.44 -10.4)" />
        <path class="cls-2"
            d="M552,293.64a.5.5,0,0,1-.5-.5v-171a.5.5,0,0,1,.5-.5h45.48a.5.5,0,0,1,.5.5v171a.5.5,0,0,1-.5.5Zm0-199.35a.5.5,0,0,1-.5-.5v-40a.5.5,0,0,1,.5-.5h45.48a.5.5,0,0,1,.5.5v40a.5.5,0,0,1-.5.5Z"
            transform="translate(-10.44 -10.4)" />
        <path class="cls-2"
            d="M597.48,53.79v40H552v-40h45.48m0,68.39v171H552v-171h45.48m0-69.39H552a1,1,0,0,0-1,1v40a1,1,0,0,0,1,1h45.48a1,1,0,0,0,1-1v-40a1,1,0,0,0-1-1Zm0,68.39H552a1,1,0,0,0-1,1v171a1,1,0,0,0,1,1h45.48a1,1,0,0,0,1-1v-171a1,1,0,0,0-1-1Z"
            transform="translate(-10.44 -10.4)" />
        <path class="cls-1"
            d="M821.83,293.64a.51.51,0,0,1-.49-.39L782,125.67,743.45,293.24a.49.49,0,0,1-.49.39H684.81a.49.49,0,0,1-.39-.19.51.51,0,0,1-.09-.43L753.24,14.2a.5.5,0,0,1,.49-.38h57.36a.5.5,0,0,1,.49.4l46.9,227.44L905.4,14.22a.5.5,0,0,1,.49-.4h57a.49.49,0,0,1,.39.19.51.51,0,0,1,.09.43l-68.1,278.81a.5.5,0,0,1-.49.38h-72.9ZM660,290.45a.49.49,0,0,1-.47-.4L601.1,14.43a.53.53,0,0,1,.1-.42.49.49,0,0,1,.39-.19h56.95a.49.49,0,0,1,.49.41l31,167.86a.55.55,0,0,1,0,.22L660.46,290.08a.5.5,0,0,1-.48.37Z"
            transform="translate(-10.44 -10.4)" />
        <path class="cls-1"
            d="M962.83,14.33l-68.1,278.81h-72.9L782,123.47,743,293.14H684.82L753.73,14.33h57.36l47.39,229.81L905.89,14.33h56.94m-304.3,0,31,167.86L660,290,601.57,14.34h57m304.3-1h-57a1,1,0,0,0-1,.8L858.47,239.19,812.07,14.13a1,1,0,0,0-1-.8H753.73a1,1,0,0,0-1,.76L683.85,292.9a1,1,0,0,0,.18.86,1,1,0,0,0,.79.38H743a1,1,0,0,0,1-.78L782,127.88l38.84,165.48a1,1,0,0,0,1,.77h72.9a1,1,0,0,0,1-.76L963.8,14.56a1,1,0,0,0-.18-.85,1,1,0,0,0-.79-.38Zm-304.3,0H601.58a1,1,0,0,0-.78.37,1,1,0,0,0-.2.84L659,290.16a1,1,0,0,0,1,.79h0a1,1,0,0,0,1-.74l29.52-107.77a1,1,0,0,0,0-.45l-31-167.84a1,1,0,0,0-1-.82Z"
            transform="translate(-10.44 -10.4)" />
        <path class="cls-2"
            d="M1019.72,296.38a89.4,89.4,0,0,1-34.89-6.88,88.12,88.12,0,0,1-28.37-18.92,91.1,91.1,0,0,1-19.08-28.19,85.44,85.44,0,0,1-7-34.38,86.48,86.48,0,0,1,7-34.75,91.64,91.64,0,0,1,19.08-28.19A90.7,90.7,0,0,1,984.83,126a87.7,87.7,0,0,1,34.9-7,85.69,85.69,0,0,1,34.4,7,89.94,89.94,0,0,1,47.27,47.27,86.42,86.42,0,0,1,7,34.75,88.72,88.72,0,0,1-2.07,19.25.36.36,0,0,1,0,.11l-.33.68a.5.5,0,0,1-.45.28h-86.84a.5.5,0,0,1-.42-.23l-21.88-34.88a.49.49,0,0,1,0-.51.51.51,0,0,1,.44-.26h64.26a50.58,50.58,0,0,0-15.52-22.71,39.37,39.37,0,0,0-25.84-9.11,41.07,41.07,0,0,0-17.22,3.71,44.85,44.85,0,0,0-14,9.93,45.78,45.78,0,0,0-9.3,14.82,50.85,50.85,0,0,0-3.39,18.72,46.11,46.11,0,0,0,3.06,16,48.77,48.77,0,0,0,8.8,15,50.55,50.55,0,0,0,13.87,11.3,36.73,36.73,0,0,0,18.22,4.54,52.73,52.73,0,0,0,16.77-2.54c5-1.67,9.81-5.47,14.29-11.29l.4-.39a.52.52,0,0,1,.35-.14.54.54,0,0,1,.22.05l.68.33,39.65,17.47a.5.5,0,0,1,.16.8l-.68.7a86.41,86.41,0,0,1-31.42,27A88.52,88.52,0,0,1,1019.72,296.38Z"
            transform="translate(-10.44 -10.4)" />
        <path class="cls-2"
            d="M1019.72,119.43a84.84,84.84,0,0,1,34.2,7,89.53,89.53,0,0,1,47,47,85.57,85.57,0,0,1,7,34.55,87.23,87.23,0,0,1-2.06,19.14l-.33.68h-86.84l-21.88-34.88h65a51.07,51.07,0,0,0-15.9-23.6,39.65,39.65,0,0,0-26.16-9.22,41.3,41.3,0,0,0-17.43,3.76,44.92,44.92,0,0,0-14.19,10.05,46,46,0,0,0-9.4,15,51.22,51.22,0,0,0-3.42,18.91A46.39,46.39,0,0,0,978.38,224a49.19,49.19,0,0,0,8.89,15.16,50.65,50.65,0,0,0,14,11.41,37.08,37.08,0,0,0,18.46,4.61,53.26,53.26,0,0,0,16.93-2.56q7.68-2.56,14.52-11.46l.35-.33.68.33,39.67,17.47-.68.7a85.64,85.64,0,0,1-31.29,26.89,89.08,89.08,0,0,1-103.09-16,90.45,90.45,0,0,1-19-28,84.43,84.43,0,0,1-7-34.18,85.43,85.43,0,0,1,7-34.55,89,89,0,0,1,47.19-47,86.68,86.68,0,0,1,34.68-7m0-1a88.27,88.27,0,0,0-35.09,7.09,90,90,0,0,0-47.72,47.53A86.89,86.89,0,0,0,929.83,208a85.85,85.85,0,0,0,7.08,34.58,91.62,91.62,0,0,0,19.19,28.34,88.43,88.43,0,0,0,28.54,19,89.88,89.88,0,0,0,35.09,6.92,89,89,0,0,0,40.63-9.76A87.15,87.15,0,0,0,1092,260l.63-.64a1,1,0,0,0,.27-.89,1,1,0,0,0-.58-.73l-39.67-17.47-.64-.32a1,1,0,0,0-.44-.1,1,1,0,0,0-.69.28l-.35.33a.52.52,0,0,0-.1.11c-4.41,5.74-9.14,9.48-14.05,11.12a52.63,52.63,0,0,1-16.61,2.51,36.19,36.19,0,0,1-18-4.48A49.93,49.93,0,0,1,988,238.5a48.43,48.43,0,0,1-8.71-14.86,45.61,45.61,0,0,1-3-15.84,50.54,50.54,0,0,1,3.35-18.54,45.14,45.14,0,0,1,9.2-14.66,44.13,44.13,0,0,1,13.88-9.82,40.62,40.62,0,0,1,17-3.67,38.91,38.91,0,0,1,25.52,9,50.06,50.06,0,0,1,15.14,21.83H996.85a1,1,0,0,0-.88.52,1,1,0,0,0,0,1l21.88,34.88a1,1,0,0,0,.85.47h86.84a1,1,0,0,0,.9-.56l.33-.68a2,2,0,0,0,.08-.22A89.11,89.11,0,0,0,1109,208a86.86,86.86,0,0,0-7.1-34.94,90.53,90.53,0,0,0-47.53-47.53,86.29,86.29,0,0,0-34.61-7.1Z"
            transform="translate(-10.44 -10.4)" />
        <path class="cls-2"
            d="M1208.27,296.38a89.4,89.4,0,0,1-34.89-6.88A88,88,0,0,1,1145,270.58a91.28,91.28,0,0,1-19.08-28.19,85.44,85.44,0,0,1-7-34.38,86.44,86.44,0,0,1,7-34.75A89.45,89.45,0,0,1,1173.38,126a87.7,87.7,0,0,1,34.9-7,85.69,85.69,0,0,1,34.4,7A89.94,89.94,0,0,1,1290,173.26a86.42,86.42,0,0,1,7,34.75,88.72,88.72,0,0,1-2.07,19.25.36.36,0,0,1,0,.11l-.33.68a.5.5,0,0,1-.45.28h-86.84a.5.5,0,0,1-.42-.23L1185,193.22a.49.49,0,0,1,0-.51.51.51,0,0,1,.44-.26h64.26a50.64,50.64,0,0,0-15.52-22.71,39.37,39.37,0,0,0-25.84-9.11,41.07,41.07,0,0,0-17.22,3.71,44.85,44.85,0,0,0-14,9.93,45.78,45.78,0,0,0-9.3,14.82,50.85,50.85,0,0,0-3.39,18.72,46.11,46.11,0,0,0,3.06,16,48.77,48.77,0,0,0,8.8,15,50.45,50.45,0,0,0,13.88,11.3,36.73,36.73,0,0,0,18.22,4.54,52.73,52.73,0,0,0,16.77-2.54c5-1.67,9.82-5.47,14.29-11.29l.4-.39a.52.52,0,0,1,.35-.14.54.54,0,0,1,.22.05l.68.33,39.65,17.47a.5.5,0,0,1,.16.8l-.68.7a86.41,86.41,0,0,1-31.42,27A88.53,88.53,0,0,1,1208.27,296.38Z"
            transform="translate(-10.44 -10.4)" />
        <path class="cls-2"
            d="M1208.27,119.43a84.84,84.84,0,0,1,34.2,7,89.53,89.53,0,0,1,47,47,85.57,85.57,0,0,1,7,34.55,87.23,87.23,0,0,1-2.06,19.14l-.33.68h-86.84l-21.88-34.88h65a51.07,51.07,0,0,0-15.9-23.6,39.65,39.65,0,0,0-26.16-9.22,41.3,41.3,0,0,0-17.43,3.76,44.92,44.92,0,0,0-14.19,10.05,46.17,46.17,0,0,0-9.41,15,51.22,51.22,0,0,0-3.42,18.91,46.39,46.39,0,0,0,3.09,16.18,49.19,49.19,0,0,0,8.89,15.16,50.65,50.65,0,0,0,14,11.41,37.08,37.08,0,0,0,18.46,4.61,53.26,53.26,0,0,0,16.93-2.56q7.68-2.56,14.52-11.46l.35-.33.68.33,39.67,17.47-.68.7a85.64,85.64,0,0,1-31.29,26.89,89.11,89.11,0,0,1-103.1-16,90.45,90.45,0,0,1-19-28,84.43,84.43,0,0,1-7-34.18,85.43,85.43,0,0,1,7-34.55,89,89,0,0,1,47.2-47,86.84,86.84,0,0,1,34.69-7m0-1a88.27,88.27,0,0,0-35.09,7.09,90,90,0,0,0-47.72,47.53,86.89,86.89,0,0,0-7.08,34.95,85.85,85.85,0,0,0,7.08,34.58,91.62,91.62,0,0,0,19.19,28.34,88.43,88.43,0,0,0,28.54,19,89.88,89.88,0,0,0,35.09,6.92,89,89,0,0,0,40.63-9.76A87.15,87.15,0,0,0,1280.52,260l.63-.64a1,1,0,0,0,.27-.89,1,1,0,0,0-.58-.73l-39.67-17.47-.65-.32a1,1,0,0,0-.44-.1,1,1,0,0,0-.69.28l-.35.33a.52.52,0,0,0-.1.11c-4.41,5.74-9.14,9.48-14,11.12a52.63,52.63,0,0,1-16.61,2.51,36.19,36.19,0,0,1-18-4.48,49.93,49.93,0,0,1-13.74-11.18,48.43,48.43,0,0,1-8.71-14.86,45.61,45.61,0,0,1-3-15.84,50.54,50.54,0,0,1,3.35-18.54,45.14,45.14,0,0,1,9.2-14.66,44.13,44.13,0,0,1,13.88-9.82,40.62,40.62,0,0,1,17-3.67,38.91,38.91,0,0,1,25.52,9,50,50,0,0,1,15.13,21.83h-63.55a1,1,0,0,0-.88.52,1,1,0,0,0,0,1l21.88,34.88a1,1,0,0,0,.85.47h86.84a1,1,0,0,0,.9-.56l.33-.68a2,2,0,0,0,.08-.22,89.11,89.11,0,0,0,2.08-19.36,86.86,86.86,0,0,0-7.1-34.94,90.53,90.53,0,0,0-47.53-47.53,86.06,86.06,0,0,0-34.59-7.1Z"
            transform="translate(-10.44 -10.4)" />
        <rect class="cls-3" x="282.82" y="303.59" width="1002.47" height="31.71" />
        <polyline class="cls-3" points="1285.29 83.39 1285.29 43.39 955.35 43.39 946.31 82.48" />
        <path class="cls-2"
            d="M79.58,299.12c-15.72,0-28-5.68-36.52-16.89v14.51a.5.5,0,0,1-.5.5H11.44a.5.5,0,0,1-.5-.5v-165a.5.5,0,0,1,.5-.5H42.8a.5.5,0,0,1,.5.5V238a31,31,0,0,0,2.55,12.54,32.17,32.17,0,0,0,17.07,16.95,31.73,31.73,0,0,0,12.65,2.55A31.27,31.27,0,0,0,88,267.52a32.34,32.34,0,0,0,10.21-6.86,32.69,32.69,0,0,0,6.85-10.09,32.06,32.06,0,0,0,0-25.06,34.54,34.54,0,0,0-6.86-10.23A30.34,30.34,0,0,0,88,208.45,32.43,32.43,0,0,0,75.57,206a33.15,33.15,0,0,0-12.45,2.52l-.17.16a.5.5,0,0,1-.35.14h-.09a.49.49,0,0,1-.36-.28l-.23-.48L50.37,186.88a.52.52,0,0,1,.08-.59l.24-.25c7.82-6.06,17.52-9.11,28.89-9.11a60.28,60.28,0,0,1,23.77,4.76,61.45,61.45,0,0,1,19.5,13.08A63.45,63.45,0,0,1,136,214.24a60.49,60.49,0,0,1,0,47.56,63.24,63.24,0,0,1-13.19,19.49,61.45,61.45,0,0,1-19.5,13.08A60.41,60.41,0,0,1,79.58,299.12Z"
            transform="translate(-10.44 -10.4)" />
        <path class="cls-2"
            d="M42.8,131.7V238a31.24,31.24,0,0,0,2.59,12.74,33.34,33.34,0,0,0,7,10.25,32.65,32.65,0,0,0,10.38,7,32,32,0,0,0,12.84,2.59A31.52,31.52,0,0,0,88.17,268a32.6,32.6,0,0,0,17.32-17.21,32.58,32.58,0,0,0,0-25.46,35.07,35.07,0,0,0-6.95-10.38,30.71,30.71,0,0,0-10.37-7,32.84,32.84,0,0,0-12.61-2.47,33.49,33.49,0,0,0-12.73,2.59l-.24.23-.23-.48L50.8,186.65l.24-.25q11.55-9,28.53-9a59.45,59.45,0,0,1,23.57,4.72,60.67,60.67,0,0,1,19.34,13,62.46,62.46,0,0,1,13.08,19.32,60,60,0,0,1,0,47.16A62.49,62.49,0,0,1,122.48,281a60.67,60.67,0,0,1-19.34,13,59.79,59.79,0,0,1-23.57,4.7q-24.28,0-37-17.92v16H11.44v-165H42.8m0-1H11.44a1,1,0,0,0-1,1v165a1,1,0,0,0,1,1H42.56a1,1,0,0,0,1-1V283.67c8.57,10.59,20.67,15.95,36,15.95a61.11,61.11,0,0,0,24-4.78,62,62,0,0,0,19.66-13.18A63.61,63.61,0,0,0,136.49,262a61,61,0,0,0,0-48,63.75,63.75,0,0,0-13.29-19.63,61.76,61.76,0,0,0-19.66-13.18,60.88,60.88,0,0,0-24-4.8c-11.48,0-21.29,3.08-29.14,9.17l-.11.1-.24.25a1,1,0,0,0-.16,1.17l11.55,21.18.22.46a1,1,0,0,0,.72.55l.18,0a1,1,0,0,0,.69-.28l.1-.1a32.67,32.67,0,0,1,12.18-2.44,32,32,0,0,1,12.23,2.4,29.64,29.64,0,0,1,10,6.72,34,34,0,0,1,6.75,10.08,31.54,31.54,0,0,1,0,24.66,32.37,32.37,0,0,1-6.75,9.94,31.77,31.77,0,0,1-10.06,6.75,30.83,30.83,0,0,1-12.22,2.51,31.16,31.16,0,0,1-12.45-2.51A31.92,31.92,0,0,1,53,260.32a32.37,32.37,0,0,1-6.75-9.94A30.55,30.55,0,0,1,43.78,238V131.7a1,1,0,0,0-1-1Z"
            transform="translate(-10.44 -10.4)" />
    </g>
</svg>