<?xml version="1.0" encoding="utf-8"?>
<!-- Generator: Adobe Illustrator 25.2.0, SVG Export Plug-In . SVG Version: 6.00 Build 0)  -->
<svg version="1.1" id="Layer_1" xmlns="http://www.w3.org/2000/svg" xmlns:xlink="http://www.w3.org/1999/xlink" x="0px" y="0px"
	 viewBox="0 0 1451.3 1451.3" style="enable-background:new 0 0 1451.3 1451.3;" xml:space="preserve">
<style type="text/css">
	.st0{display:none;fill:#011D26;}
	.st1{fill:#006994;}
</style>
<rect x="-21" y="-9.6" class="st0" width="1521.3" height="1484"/>
<path class="st1" d="M527.6,469.7c-0.1-0.1-0.1-0.1-0.2-0.2L302.6,253.1c-2.6-2.5-6-4-9.7-4c-2.2,0-4.3,0.5-6.2,1.4
	c-6.5,3.2-9.3,10.8-6.7,17.4l76,210.1v418.7c0,3.7,1.5,7.3,4.1,9.9l0.1,0.1L508,1050.5c2.6,2.5,6,4,9.7,4h0.2c2.1,0,4.1-0.4,6-1.4
	c4.8-2.3,7.7-7.2,7.7-12.5V479.6C531.7,475.9,530.2,472.4,527.6,469.7z M293.1,262.6L293.1,262.6L293.1,262.6z M293,262.6L293,262.6
	C293,262.6,292.9,262.6,293,262.6C292.9,262.6,292.9,262.6,293,262.6z M292.8,262.6L292.8,262.6L292.8,262.6L292.8,262.6
	C292.7,262.7,292.8,262.7,292.8,262.6z"/>
<path class="st1" d="M1168.2,253.1c-1-1-2.2-1.9-3.5-2.5c-2-1-4.1-1.5-6.3-1.5c-4,0-7.5,1.6-10.1,4.4L924.1,469.6
	c-0.1,0.1-0.1,0.1-0.2,0.2c-2.7,2.7-4.1,6.2-4.1,9.9v413.4c0,5.3,3,10.1,7.7,12.5c1.9,0.9,4,1.4,6,1.4h0.2c1.3,0,2.5-0.2,3.7-0.5
	c2.3-0.6,4.4-1.8,6.1-3.5l147.8-147.8c1.5-1.5,4-4.8,4-9.9V478.1l76.1-210.3c0.5-1.4,0.8-3.1,0.8-4.6
	C1172.4,259.3,1170.9,255.7,1168.2,253.1z M1158.5,262.6L1158.5,262.6L1158.5,262.6L1158.5,262.6z M1158.3,262.6
	C1158.3,262.6,1158.4,262.6,1158.3,262.6C1158.4,262.6,1158.3,262.6,1158.3,262.6z M933.5,479.3L933.5,479.3
	c-0.1,0.1-0.2,0.2-0.2,0.4C933.3,479.5,933.4,479.4,933.5,479.3z M933.7,893.6c-0.1,0-0.1,0-0.2,0c-0.1,0-0.2-0.1-0.2-0.2
	c0,0.1,0.1,0.2,0.2,0.2C933.6,893.6,933.6,893.6,933.7,893.6c0,0,0.1,0,0.2,0C933.8,893.5,933.8,893.6,933.7,893.6z M1081.8,745.6
	c0.1-0.1,0.1-0.2,0.1-0.4C1081.9,745.5,1081.9,745.5,1081.8,745.6z"/>
<path class="st1" d="M812.5,245.5c-0.7-1.7-1.7-3.2-3-4.5c-0.1-0.1-0.2-0.2-0.2-0.2L661.5,99.1c-2.6-2.5-6.1-4-9.7-4
	c-2.8,0-5.4,0.8-7.6,2.3c-3.9,2.6-6.3,6.9-6.3,11.7v1081.2c0,2.2,0.5,4.3,1.5,6.3c0.6,1.3,1.4,2.3,2.4,3.4l147.8,151.9l0.1,0.1
	c2.7,2.7,6.2,4.1,9.9,4.1h0.2c2.1,0,4.1-0.4,6-1.4c4.8-2.3,7.7-7.2,7.7-12.5V250.8C813.5,249,813.2,247.2,812.5,245.5z M651.9,108.6
	L651.9,108.6L651.9,108.6L651.9,108.6z"/>
</svg>
