<svg id="Layer_1" data-name="Layer 1" xmlns="http://www.w3.org/2000/svg" viewBox="0 0 1023.55 1445.14"><defs><style>.cls-1{fill:#fcfcfc;}</style></defs><path class="cls-1" d="M498.62,432.33l-.2-.21L240.87,184a15.94,15.94,0,0,0-11.12-4.53,16.7,16.7,0,0,0-7.1,1.65,16,16,0,0,0-7.72,20L302,441.9V921.8a16.12,16.12,0,0,0,4.74,11.32l.1.1,169.33,164.7a15.89,15.89,0,0,0,11.12,4.53h.21a14.81,14.81,0,0,0,6.89-1.64,15.9,15.9,0,0,0,8.86-14.31V443.65A15.79,15.79,0,0,0,498.62,432.33ZM230,195Zm-.11,0Zm-.31,0h0l-.1.11A.1.1,0,0,0,229.54,195Z" transform="translate(-213.88 -3.08)"/><path class="cls-1" d="M1232.88,184a15.78,15.78,0,0,0-4-2.88,16.16,16.16,0,0,0-7.2-1.75,15.78,15.78,0,0,0-11.63,5L953.09,432.23l-.2.2a15.9,15.9,0,0,0-4.74,11.33V917.58A15.9,15.9,0,0,0,957,931.89a16.15,16.15,0,0,0,6.89,1.64h.21a14.5,14.5,0,0,0,4.22-.61,15.51,15.51,0,0,0,7-4l169.33-169.33a15.76,15.76,0,0,0,4.63-11.33V441.9l87.19-241a15.15,15.15,0,0,0,.93-5.24A15.57,15.57,0,0,0,1232.88,184ZM1221.66,195Zm-.21,0ZM963.8,443.34h0a.57.57,0,0,0-.21.42A.57.57,0,0,1,963.8,443.34Zm.31,474.75h-.21a.22.22,0,0,1-.2-.2.22.22,0,0,0,.2.2h.41C964.21,918,964.21,918.09,964.11,918.09Zm169.74-169.54c.11-.1.11-.2.11-.41C1134,748.35,1134,748.45,1133.85,748.55Z" transform="translate(-213.88 -3.08)"/><path class="cls-1" d="M825.14,175.4a15.91,15.91,0,0,0-3.39-5.15l-.21-.21L652.1,7.61A16.09,16.09,0,0,0,641,3.08a15.39,15.39,0,0,0-8.75,2.67A16.15,16.15,0,0,0,625,19.14V1258.2a16.16,16.16,0,0,0,1.75,7.2,17,17,0,0,0,2.78,3.92l169.33,174.06.11.11a15.9,15.9,0,0,0,11.32,4.73h.21a14.7,14.7,0,0,0,6.89-1.65,15.86,15.86,0,0,0,8.85-14.3V181.47A13.63,13.63,0,0,0,825.14,175.4Zm-184-156.88Z" transform="translate(-213.88 -3.08)"/></svg>