<svg id="Layer_1" data-name="Layer 1" xmlns="http://www.w3.org/2000/svg" viewBox="0 0 1451.3 1451.3"><defs><style>.cls-1{fill:#011d26;}</style></defs><path class="cls-1" d="M579,517.55l-.14-.14L403.86,348.89a10.85,10.85,0,0,0-7.55-3.07,11.37,11.37,0,0,0-4.83,1.12,10.82,10.82,0,0,0-5.24,13.56l59.15,163.56v326a11,11,0,0,0,3.22,7.69l.07.07,115,111.88a10.81,10.81,0,0,0,7.55,3.07h.14a10,10,0,0,0,4.68-1.12,10.77,10.77,0,0,0,6-9.71V525.24A10.73,10.73,0,0,0,579,517.55ZM396.45,356.31Zm-.07,0Zm-.21,0h0l-.07.07A.07.07,0,0,0,396.17,356.31Z"/><path class="cls-1" d="M1077.72,348.89a11,11,0,0,0-7.62-3.14,10.76,10.76,0,0,0-7.9,3.42L887.67,517.48l-.14.14a10.8,10.8,0,0,0-3.22,7.69V847.18a10.8,10.8,0,0,0,6,9.72A10.92,10.92,0,0,0,895,858h.14a9.82,9.82,0,0,0,2.87-.42,10.52,10.52,0,0,0,4.75-2.73l115-115a10.66,10.66,0,0,0,3.14-7.69V524.06l59.23-163.7a10.35,10.35,0,0,0,.63-3.56A10.55,10.55,0,0,0,1077.72,348.89Zm-7.62,7.42Zm-.14,0ZM894.94,525h0a.33.33,0,0,0-.14.27A.33.33,0,0,1,894.94,525Zm.21,322.49H895a.15.15,0,0,1-.14-.14.15.15,0,0,0,.14.14h.28C895.22,847.46,895.22,847.53,895.15,847.53Zm115.31-115.17c.07-.07.07-.14.07-.28C1010.53,732.22,1010.53,732.29,1010.46,732.36Z"/><path class="cls-1" d="M800.75,343a10.89,10.89,0,0,0-2.31-3.5l-.14-.14L683.21,229a11,11,0,0,0-7.55-3.07,10.54,10.54,0,0,0-5.95,1.81,11,11,0,0,0-4.89,9.09v841.69a10.92,10.92,0,0,0,1.19,4.89,11.79,11.79,0,0,0,1.88,2.66l115,118.24.07.07a10.8,10.8,0,0,0,7.69,3.22h.14a10.06,10.06,0,0,0,4.69-1.12,10.8,10.8,0,0,0,6-9.72V347.15A9.42,9.42,0,0,0,800.75,343Zm-125-106.56Z"/></svg>