<svg id="Layer_1" data-name="Layer 1" xmlns="http://www.w3.org/2000/svg" viewBox="0 0 1451.3 1451.3"><defs><style>.cls-1{fill:#fcfcfc;}</style></defs><path class="cls-1" d="M579,517.55l-.14-.14-175-168.52a10.85,10.85,0,0,0-7.56-3.07,11.36,11.36,0,0,0-4.82,1.12,10.83,10.83,0,0,0-5.25,13.56L445.4,524.06v326a11,11,0,0,0,3.22,7.69l.07.07,115,111.88a10.85,10.85,0,0,0,7.56,3.07h.14a10.05,10.05,0,0,0,4.68-1.12,10.77,10.77,0,0,0,6-9.71V525.24A10.72,10.72,0,0,0,579,517.55ZM396.45,356.31Zm-.07,0Zm-.21,0h0l-.07.07A.07.07,0,0,0,396.17,356.31Z"/><path class="cls-1" d="M1077.73,348.89a11,11,0,0,0-2.73-1.95,10.92,10.92,0,0,0-4.89-1.19,10.74,10.74,0,0,0-7.9,3.42L887.68,517.48l-.14.14a10.8,10.8,0,0,0-3.22,7.69V847.18a10.81,10.81,0,0,0,6,9.72A11,11,0,0,0,895,858h.14a9.7,9.7,0,0,0,2.86-.42,10.5,10.5,0,0,0,4.76-2.73l115-115a10.7,10.7,0,0,0,3.14-7.69V524.06l59.23-163.7a10.35,10.35,0,0,0,.63-3.56A10.55,10.55,0,0,0,1077.73,348.89Zm-7.62,7.42Zm-.14,0ZM895,525h0a.33.33,0,0,0-.14.27A.33.33,0,0,1,895,525Zm.21,322.49H895a.15.15,0,0,1-.14-.14.15.15,0,0,0,.14.14h.28C895.23,847.46,895.23,847.53,895.16,847.53Zm115.3-115.17c.07-.07.07-.14.07-.28C1010.53,732.22,1010.53,732.29,1010.46,732.36Z"/><path class="cls-1" d="M800.76,343a10.89,10.89,0,0,0-2.31-3.5l-.14-.14L683.22,229a11,11,0,0,0-7.56-3.07,10.53,10.53,0,0,0-5.94,1.81,11,11,0,0,0-4.89,9.09v841.69a10.91,10.91,0,0,0,1.18,4.89,11.53,11.53,0,0,0,1.89,2.66l115,118.24.07.07a10.79,10.79,0,0,0,7.69,3.22h.14a10,10,0,0,0,4.68-1.12,10.79,10.79,0,0,0,6-9.72V347.15A9.42,9.42,0,0,0,800.76,343Zm-125-106.56Z"/></svg>